/* XPM */
static char * address_book_xpm[] = {
"24 24 270 2",
"  	c None",
". 	c #BCBCBC",
"+ 	c #A1A1A1",
"@ 	c #8A8A8A",
"# 	c #777777",
"$ 	c #666666",
"% 	c #575757",
"& 	c #383838",
"* 	c #393939",
"= 	c #2B2B2B",
"- 	c #2E2E2E",
"; 	c #737373",
"> 	c #BDBDBD",
", 	c #CBCBCB",
"' 	c #CCCCCC",
") 	c #D5D5D5",
"! 	c #DCDCDC",
"~ 	c #E3E3E3",
"{ 	c #EDEDED",
"] 	c #EBEBEB",
"^ 	c #F2F2F2",
"/ 	c #F9F9F9",
"( 	c #313131",
"_ 	c #3E3E3E",
": 	c #F3F3F3",
"< 	c #F6F6F6",
"[ 	c #F7F7F7",
"} 	c #FBFBFB",
"| 	c #FFFFFF",
"1 	c #D8D8D8",
"2 	c #AFAFAF",
"3 	c #B5B5B5",
"4 	c #E0E0E0",
"5 	c #1C1C1C",
"6 	c #D2D2D2",
"7 	c #EFEFEF",
"8 	c #FEFEFE",
"9 	c #F4F4F4",
"0 	c #E1E1E1",
"a 	c #D7D7D7",
"b 	c #D9D9D9",
"c 	c #D1D1D1",
"d 	c #1D1D1D",
"e 	c #363636",
"f 	c #2C2C2C",
"g 	c #191919",
"h 	c #121212",
"i 	c #151515",
"j 	c #141414",
"k 	c #282828",
"l 	c #1A1A1A",
"m 	c #DEDEDE",
"n 	c #D6D6D6",
"o 	c #E8E8E8",
"p 	c #CACACA",
"q 	c #1E1E1E",
"r 	c #2D2D2D",
"s 	c #BBBBBB",
"t 	c #D0D0D0",
"u 	c #CFCFCF",
"v 	c #B6B6B6",
"w 	c #262626",
"x 	c #C2C2C2",
"y 	c #C7C7C7",
"z 	c #A8A8A8",
"A 	c #E4E4E4",
"B 	c #BEBEBE",
"C 	c #252525",
"D 	c #131313",
"E 	c #979797",
"F 	c #919191",
"G 	c #929292",
"H 	c #939393",
"I 	c #ADADAD",
"J 	c #858585",
"K 	c #FCFCFC",
"L 	c #3A3A3A",
"M 	c #9B9B9B",
"N 	c #969696",
"O 	c #989898",
"P 	c #868686",
"Q 	c #4F4F4F",
"R 	c #070707",
"S 	c #303030",
"T 	c #AAAAAA",
"U 	c #9A9A9A",
"V 	c #9C9C9C",
"W 	c #B0B0B0",
"X 	c #747474",
"Y 	c #4C4C4C",
"Z 	c #4E4E4E",
"` 	c #414141",
" .	c #222222",
"..	c #2F2F2F",
"+.	c #AEAEAE",
"@.	c #959595",
"#.	c #9D9D9D",
"$.	c #A2A2A2",
"%.	c #B9B9B9",
"&.	c #7C7C7C",
"*.	c #2F3132",
"=.	c #A8B2B7",
"-.	c #9FA9AE",
";.	c #555859",
">.	c #4B4B4B",
",.	c #373737",
"'.	c #424242",
").	c #272727",
"!.	c #292929",
"~.	c #323232",
"{.	c #4A4A4A",
"].	c #5D5D5D",
"^.	c #515353",
"/.	c #A9B4B9",
"(.	c #BFC5C7",
"_.	c #494C4D",
":.	c #1B1C1C",
"<.	c #404040",
"[.	c #3D3D3D",
"}.	c #6D6D6D",
"|.	c #232323",
"1.	c #161616",
"2.	c #000000",
"3.	c #383C3E",
"4.	c #CAD0D4",
"5.	c #565758",
"6.	c #1B0F12",
"7.	c #30141A",
"8.	c #333333",
"9.	c #3F3F3F",
"0.	c #A9A9A9",
"a.	c #E6E6E6",
"b.	c #C6C6C6",
"c.	c #ACACAC",
"d.	c #7A7A7A",
"e.	c #323435",
"f.	c #C6CACD",
"g.	c #373A3B",
"h.	c #311E22",
"i.	c #4D262E",
"j.	c #080808",
"k.	c #DBDBDB",
"l.	c #DADADA",
"m.	c #A0A0A0",
"n.	c #7D7D7D",
"o.	c #3C3C3C",
"p.	c #A6A7A7",
"q.	c #282929",
"r.	c #372125",
"s.	c #502B33",
"t.	c #342025",
"u.	c #343434",
"v.	c #202020",
"w.	c #0C0C0C",
"x.	c #7E7E7E",
"y.	c #392227",
"z.	c #4E2A32",
"A.	c #301219",
"B.	c #343031",
"C.	c #545454",
"D.	c #D4D4D4",
"E.	c #F1F1F1",
"F.	c #808080",
"G.	c #ABABAB",
"H.	c #848484",
"I.	c #583C42",
"J.	c #45252C",
"K.	c #38161D",
"L.	c #1E0C10",
"M.	c #707070",
"N.	c #525252",
"O.	c #5C5C5C",
"P.	c #8E8B8B",
"Q.	c #D0CDCD",
"R.	c #DDDDDD",
"S.	c #727272",
"T.	c #595959",
"U.	c #C9C9C9",
"V.	c #CECECE",
"W.	c #474747",
"X.	c #6A5156",
"Y.	c #47222B",
"Z.	c #33141B",
"`.	c #270F14",
" +	c #272525",
".+	c #170A0E",
"++	c #100508",
"@+	c #241E20",
"#+	c #544C4E",
"$+	c #462E31",
"%+	c #92787C",
"&+	c #9E898D",
"*+	c #9D9091",
"=+	c #9A9293",
"-+	c #6F5056",
";+	c #33141A",
">+	c #38161E",
",+	c #36161C",
"'+	c #231115",
")+	c #342C2E",
"!+	c #2F1019",
"~+	c #3D1C24",
"{+	c #65343C",
"]+	c #5A1620",
"^+	c #2E0A0F",
"/+	c #400F16",
"(+	c #7B232F",
"_+	c #7D2B36",
":+	c #7F343E",
"<+	c #7F3A43",
"[+	c #311A1E",
"}+	c #684E53",
"|+	c #421A23",
"1+	c #31141A",
"2+	c #2A1016",
"3+	c #2F1217",
"4+	c #1E1718",
"5+	c #403538",
"6+	c #A0868D",
"7+	c #A7737D",
"8+	c #99515D",
"9+	c #893844",
"0+	c #7A1E2B",
"a+	c #791C29",
"b+	c #340E14",
"c+	c #7C5E65",
"d+	c #34151B",
"e+	c #32141A",
"f+	c #250E13",
"g+	c #220C10",
"h+	c #1F1F1F",
"i+	c #373535",
"j+	c #85797C",
"k+	c #897378",
"l+	c #B58D96",
"m+	c #BF8F9A",
"n+	c #B17983",
"o+	c #8B3B47",
"p+	c #3E161D",
"q+	c #66444C",
"r+	c #35151C",
"s+	c #2D1217",
"t+	c #210C11",
"u+	c #120609",
"v+	c #1F1617",
"w+	c #515151",
"x+	c #484848",
"y+	c #2F2E2E",
"z+	c #292626",
"A+	c #8B7278",
"B+	c #AA8D95",
"C+	c #995E68",
"D+	c #832E3B",
"E+	c #531F28",
"F+	c #673C45",
"G+	c #3F1921",
"H+	c #240E12",
"I+	c #1A1012",
"J+	c #3B3B3B",
"K+	c #302E2F",
"L+	c #221B1D",
"M+	c #201214",
"N+	c #6B1824",
"O+	c #66232E",
"P+	c #472229",
"Q+	c #1B0A0E",
"R+	c #282223",
"S+	c #262424",
"T+	c #21191B",
"U+	c #231D1E",
"            . + @ # $ % & * = - - -             ",
"          ; > , ' ) ! ~ { { ] ^ / ] (           ",
"          _ : < [ } | | | 1 2 3 { 4 5           ",
"          5 ] 6 6 ^ 7 8 9 0 a b 7 c d           ",
"  e f g g h i j h k l ' 9 m n , o p q           ",
"r s t u u u u u u ) v w x y z z A B C           ",
"  D + E F F G G G H I J C { } K K B C           ",
"    L z M N E E E O O I P Q [ | | 2 R w w w g * ",
"      S T U M M M V V V W P k | | X Y Z Z ` q  .",
"        ..+.F H @.#.#.+ $.%.&.*.=.-.;.>.,.'.C   ",
"          g ).!.= ~.~.{.Q ].^./.(._.:.<.[.k     ",
"        !.}.* |.1.2.2.2.2.2.3.4.5.6.7.8.).      ",
"      9.0.a.b.s c.G @.d.9.g e.f.g.h.i.j.        ",
"    ,.x | | | k.l.s m.m.+ n.o.p.q.r.s.t.        ",
"  u., | | | | | | | k.. @ v.w.x.Q y.z.A.B.      ",
"  ..C.T D.E./ K | | | n }.F.G.C.H.I.J.K.L.      ",
"      M.N.O.P.Q.R.9 a.S.T.x U.V.W.X.Y.Z.`. +    ",
"          &..+++++@+#+$+%+&+*+=+_ -+;+>+,+'+    ",
"          )+!+~+{+]+^+/+(+_+:+<+[+}+|+1+2+3+4+  ",
"          5+6+7+8+9+0+a+a+a+a+a+b+c+K.d+e+f+g+h+",
"          1.i+j+k+l+m+n+o+a+a+a+p+q+r+s+t+u+v+  ",
"              w+x+y+z+A+B+C+D+a+E+F+G+H+I+      ",
"                      J+K+L+M+N+O+P+Q+R+        ",
"                              S+T+U+            "};
