/* XPM */
static char * address_xpm[] = {
"16 16 85 1",
" 	c None",
".	c #000000",
"+	c #151515",
"@	c #F6F6F6",
"#	c #E9E9E9",
"$	c #EBEBEB",
"%	c #EAEAEA",
"&	c #E7E7E7",
"*	c #E6E6E6",
"=	c #161616",
"-	c #F8F8F8",
";	c #BABABB",
">	c #938F8D",
",	c #868684",
"'	c #9D9D9C",
")	c #E5E5E4",
"!	c #FAFAFA",
"~	c #F3F3F3",
"{	c #F9F9F9",
"]	c #F7F7F7",
"^	c #131313",
"/	c #C0C2C3",
"(	c #735753",
"_	c #31302C",
":	c #212120",
"<	c #DCDCDB",
"[	c #FEFEFE",
"}	c #969696",
"|	c #C5C5C5",
"1	c #A0A0A0",
"2	c #DBDBDB",
"3	c #E8E8E8",
"4	c #FBFBFB",
"5	c #B9B9BA",
"6	c #ECE3D7",
"7	c #8A8049",
"8	c #232326",
"9	c #DCDBDA",
"0	c #FDFDFD",
"a	c #B0B0B0",
"b	c #CECECE",
"c	c #CBCBCB",
"d	c #D9D9D9",
"e	c #FEFCFC",
"f	c #ABAEB0",
"g	c #759198",
"h	c #908B7C",
"i	c #22221F",
"j	c #DDDCDB",
"k	c #171616",
"l	c #C4DADF",
"m	c #194868",
"n	c #24406D",
"o	c #20416B",
"p	c #4D4D7C",
"q	c #E1E4E2",
"r	c #909090",
"s	c #B1B1B1",
"t	c #C1C1C1",
"u	c #D4D4D4",
"v	c #CCCCCC",
"w	c #E0E9F0",
"x	c #6B729B",
"y	c #716F9E",
"z	c #716E9E",
"A	c #6A799D",
"B	c #C6D4D9",
"C	c #E2E2E2",
"D	c #DFDFDF",
"E	c #DDDDDD",
"F	c #C7C7C7",
"G	c #EDEDED",
"H	c #FFFFFF",
"I	c #E8E8E5",
"J	c #FFFFFD",
"K	c #CFCECC",
"L	c #EDEDEC",
"M	c #FCFCFC",
"N	c #DADADA",
"O	c #121212",
"P	c #F0F0F0",
"Q	c #EEEEEE",
"R	c #F1F1F1",
"S	c #EFEFEF",
"T	c #ECECEC",
"                ",
"                ",
" .............. ",
"+@#$$%&*******@+",
"=-;>,')!~{-~]-{^",
"={/(_:<[}||1234^",
"={567890abccd&!^",
"=efghij!44!4-{-^",
"klmnopq[rstauv!^",
"=wxyzAB4CD%EFG]^",
"=HIIJKLM2N3d|$]O",
"^HPQR%GSQQTT$#[^",
" .............. ",
"                ",
"                ",
"                "};
