/* XPM */
static char * book_xpm[] = {
"16 16 111 2",
"  	c None",
". 	c #000000",
"+ 	c #717171",
"@ 	c #636363",
"# 	c #E7D4BD",
"$ 	c #E1C9AC",
"% 	c #BBA285",
"& 	c #A2978A",
"* 	c #E0C6A6",
"= 	c #DDC09D",
"- 	c #DBBE9A",
"; 	c #9F8A70",
"> 	c #6F6F6F",
", 	c #D0BEA6",
"' 	c #E7DDCF",
") 	c #E3D9CB",
"! 	c #E3D8CA",
"~ 	c #E2D7C9",
"{ 	c #ECE5DC",
"] 	c #EAE3DA",
"^ 	c #DFD4C7",
"/ 	c #E1D5C8",
"( 	c #E4D8CA",
"_ 	c #E5DACC",
": 	c #D3BA9B",
"< 	c #201B15",
"[ 	c #E2CEB6",
"} 	c #FFFFFF",
"| 	c #FEFEFE",
"1 	c #FBFBFB",
"2 	c #FCFCFC",
"3 	c #EDEDED",
"4 	c #F2F2F2",
"5 	c #F6F6F6",
"6 	c #F1F1F1",
"7 	c #CEB99F",
"8 	c #E1CDB5",
"9 	c #929292",
"0 	c #949494",
"a 	c #969696",
"b 	c #B6B6B6",
"c 	c #DCDCDC",
"d 	c #F4F4F4",
"e 	c #E5E5E5",
"f 	c #CFBDA7",
"g 	c #1F1A14",
"h 	c #D7D7D7",
"i 	c #D9D9D9",
"j 	c #DEDEDE",
"k 	c #E0E0E0",
"l 	c #FAFAFA",
"m 	c #C4C4C4",
"n 	c #D8D8D8",
"o 	c #CABBA9",
"p 	c #E1CDB3",
"q 	c #989898",
"r 	c #B9B9B9",
"s 	c #E1E1E1",
"t 	c #F3F3F3",
"u 	c #F9F9F9",
"v 	c #C0C0C0",
"w 	c #D2D2D2",
"x 	c #C7B8A6",
"y 	c #E0CBB2",
"z 	c #DFDFDF",
"A 	c #E2E2E2",
"B 	c #E3E3E3",
"C 	c #F8F8F8",
"D 	c #BFBFBF",
"E 	c #C7C7C7",
"F 	c #C0B2A0",
"G 	c #1E1913",
"H 	c #DFCBB1",
"I 	c #999999",
"J 	c #BBBBBB",
"K 	c #F5F5F5",
"L 	c #BEBEBE",
"M 	c #BDBDBD",
"N 	c #BBAC99",
"O 	c #DECAB0",
"P 	c #E4E4E4",
"Q 	c #E7E7E7",
"R 	c #B5B5B5",
"S 	c #B5A694",
"T 	c #1E1912",
"U 	c #DDC9AF",
"V 	c #E6E6E6",
"W 	c #E9E9E9",
"X 	c #ACACAC",
"Y 	c #B0A08E",
"Z 	c #1E1812",
"` 	c #C8B296",
" .	c #AE9B85",
"..	c #AD9B84",
"+.	c #AE9B84",
"@.	c #B2A18C",
"#.	c #F2EEE9",
"$.	c #A6A6A6",
"%.	c #A5937E",
"&.	c #1D1812",
"*.	c #141414",
"=.	c #6F6962",
"-.	c #C7C4C0",
";.	c #EEEDED",
">.	c #C3C3C3",
",.	c #9A9A9A",
"'.	c #52473A",
").	c #646464",
"!.	c #A0A0A0",
"~.	c #3A3A3A",
"{.	c #505050",
"  . . . . . +                   ",
"@ . # $ $ % . @                 ",
". & * = = - ; . . . . . . . . > ",
". , ' ) ) ! ! ~ { ] ^ / ( _ : < ",
". [ } } } } | 1 2 | 3 4 5 6 7 < ",
". 8 } 9 0 a b c 6 } | 3 d e f g ",
". 8 } h i c j k 4 } } l m n o g ",
". p } 0 a q r s t } } u v w x g ",
". y } i c z A B t } } C D E F G ",
". H } a q I J e K } } C L M N G ",
". O } c z A P Q K } } u D R S T ",
". U } j k B V W 5 } } u v X Y Z ",
". `  .....+. .@.#.} } l m $.%.&.",
"@ . . . . . . *.=.-.;.l >.,.'.@ ",
"                  ).!.P X ~.    ",
"                    @ {.@       "};
