/* XPM */
static char * copied_xpm[] = {
"12 12 7 1",
" 	c None",
".	c #020601",
"+	c #0A2307",
"@	c #0A2407",
"#	c #3CD52C",
"$	c #FFFFFF",
"%	c #57DB49",
"            ",
" .+@++++@+. ",
" +########@ ",
" +########+ ",
" +########@ ",
" @#$$%%$$#@ ",
" +#$$%%$$#+ ",
" @########@ ",
" +########@ ",
" +########+ ",
" .@@@@@@@@. ",
"            "};
