/* XPM */
static char * delete_btn_xpm[] = {
"24 24 95 2",
"  	c None",
". 	c #000000",
"+ 	c #535353",
"@ 	c #FFFFFF",
"# 	c #FEFEFE",
"$ 	c #FDFDFD",
"% 	c #FCFCFC",
"& 	c #FBFBFB",
"* 	c #F9F9F9",
"= 	c #F8F8F8",
"- 	c #F7F7F7",
"; 	c #F6F6F6",
"> 	c #F5F5F5",
", 	c #F4F4F4",
"' 	c #E3E3E3",
") 	c #EEEEEE",
"! 	c #4F4F4F",
"~ 	c #F3F3F3",
"{ 	c #F2F2F2",
"] 	c #F1F1F1",
"^ 	c #F0F0F0",
"/ 	c #EFEFEF",
"( 	c #EDEDED",
"_ 	c #AEAEAE",
": 	c #E4E4E4",
"< 	c #434343",
"[ 	c #ACACAC",
"} 	c #C8C8C8",
"| 	c #A0A0A0",
"1 	c #D4D4D4",
"2 	c #ECECEC",
"3 	c #959595",
"4 	c #3E3E3E",
"5 	c #4D4D4D",
"6 	c #818181",
"7 	c #C6C6C6",
"8 	c #6A6A6A",
"9 	c #636363",
"0 	c #B9B9B9",
"a 	c #737373",
"b 	c #9AB5CF",
"c 	c #8FABC7",
"d 	c #8EABC6",
"e 	c #8DAAC6",
"f 	c #8DA9C4",
"g 	c #8BA8C3",
"h 	c #8BA7C2",
"i 	c #8AA6C2",
"j 	c #88A6C2",
"k 	c #87A5C1",
"l 	c #87A4C0",
"m 	c #86A3BF",
"n 	c #84A2BF",
"o 	c #FF2C2C",
"p 	c #7F9EBA",
"q 	c #7E9DBA",
"r 	c #7E9CB9",
"s 	c #7090AE",
"t 	c #6F8FAE",
"u 	c #6E8FAD",
"v 	c #6D8EAC",
"w 	c #6D8DAB",
"x 	c #6B8CAA",
"y 	c #6A8BAA",
"z 	c #698AA9",
"A 	c #6889A8",
"B 	c #6789A7",
"C 	c #6687A7",
"D 	c #6587A6",
"E 	c #6486A5",
"F 	c #6385A5",
"G 	c #6384A4",
"H 	c #6283A3",
"I 	c #6182A2",
"J 	c #6081A1",
"K 	c #5F81A1",
"L 	c #517596",
"M 	c #507496",
"N 	c #4F7395",
"O 	c #4E7394",
"P 	c #4D7293",
"Q 	c #4C7092",
"R 	c #4B6F92",
"S 	c #4A6F91",
"T 	c #496E90",
"U 	c #486D8F",
"V 	c #476D8F",
"W 	c #466C8E",
"X 	c #466B8D",
"Y 	c #44698C",
"Z 	c #43688C",
"` 	c #43688B",
" .	c #41678A",
"..	c #406689",
"+.	c #406588",
"                                                ",
"        . . . . . . . . . . . . . . . . .       ",
"      . + @ @ @ @ # $ % & * = - ; > , ' + .     ",
"      . ) ! @ > , ~ { { ] ^ ^ / ) ( ' ! _ .     ",
"      . @ : < $ ~ { { ] ^ / ) ) ( ' ! [ } .     ",
"      . @ > : ! & ] ^ ^ / ) ( ( ' < | 1 } .     ",
"      . @ & > : < = ^ / ) ( 2 ' ! 3 1 : } .     ",
"      . @ > > > : 4 > ) ( 2 ' 5 6 7 : : } .     ",
"      . @ & > > : 8 < ~ 2 ' ! 8 7 7 > : } .     ",
"      . @ > > : 9 @ 0 ! ^ ! 3 7 a 7 > : } .     ",
"    . . . . . . . . . . . . . . . . . . . . .   ",
"  . . . . . . . . . . . . . . . . . . . . . . . ",
"  . . b b b b b b b b b b b b b b b b b b b . . ",
"  . . c d e f g h i j k l m n o o o o p q r . . ",
"  . . s t u v w x y z A B C D E F G H I J K . . ",
"  . . L M N O P Q R S T U V W X Y Z `  ...+.. . ",
"  . . . . . . . . . . . . . . . . . . . . . . . ",
"    . . . . . . . . . . . . . . . . . . . . .   ",
"      . & . & & . . & & . & & . & . & & .       ",
"      . & . & & . . & . . & & . & . & & .       ",
"      . & . & & . . . . . & & . & . & & .       ",
"      . . . & . .       . . & . . . & . .       ",
"          . . .           . .     . . .         ",
"                                                "};
