/* XPM */
static char * delete_dup_btn_xpm[] = {
"24 24 6 1",
" 	c None",
".	c #000000",
"+	c #808080",
"@	c #FFFFFF",
"#	c #FF0000",
"$	c #E00000",
"                        ",
"                        ",
" .....                  ",
".+@@@+.                 ",
".@+@+@.                 ",
".@@+@@.                 ",
".@@@@@.                 ",
" .....     ..           ",
"           .#.          ",
" .....  ....##.   ..... ",
".+@@@+. .######. .+@@@+.",
".@+@+@. .######$..@+@+@.",
".@@+@@. .######. .@@+@@.",
".@@@@@. ....##.  .@@@@@.",
" .....     .#.    ..... ",
"           ..           ",
" .....                  ",
".+@@@+.                 ",
".@+@+@.                 ",
".@@+@@.                 ",
".@@@@@.                 ",
" .....                  ",
"                        ",
"                        "};
