/* XPM */
static char * dir_noselect_close_xpm[] = {
"16 16 67 1",
" 	c None",
".	c #7F7F7F",
"+	c #B2C8E6",
"@	c #BFD6EF",
"#	c #AFC5E5",
"$	c #BCD3EC",
"%	c #BBD1ED",
"&	c #C5DAF1",
"*	c #C0D6F0",
"=	c #B0C6E8",
"-	c #F0F7FC",
";	c #EDF5FB",
">	c #EBF4FB",
",	c #E8F1FA",
"'	c #E0ECF8",
")	c #DEEBF8",
"!	c #D9E8F7",
"~	c #D0E1F4",
"{	c #E9F3FB",
"]	c #E3EFF9",
"^	c #E0EEF8",
"/	c #E0EDF8",
"(	c #DEECF8",
"_	c #D1E3F5",
":	c #CEE0F4",
"<	c #C8DCF2",
"[	c #BBD0ED",
"}	c #E8F2FA",
"|	c #DAE9F6",
"1	c #D9E9F7",
"2	c #D8E8F6",
"3	c #D3E4F5",
"4	c #C9DDF3",
"5	c #C6DAF2",
"6	c #BCD1EE",
"7	c #AEC3E6",
"8	c #D6E7F6",
"9	c #CDDFF3",
"0	c #C2D7F0",
"a	c #B5CBEB",
"b	c #A7BAE1",
"c	c #E8F3FA",
"d	c #C3D8F1",
"e	c #B2C6E8",
"f	c #A5B7DD",
"g	c #DDEAF7",
"h	c #D5E6F5",
"i	c #D0E2F4",
"j	c #CBDFF3",
"k	c #C4D9F2",
"l	c #B5C9EB",
"m	c #ADC2E5",
"n	c #A1B4DB",
"o	c #C7DBF1",
"p	c #BFD3EF",
"q	c #BAD0EE",
"r	c #B6CAEC",
"s	c #ABBFE5",
"t	c #A5B8DF",
"u	c #99ADD9",
"v	c #C1D6EF",
"w	c #B4C8EA",
"x	c #B3C7E9",
"y	c #B0C5E8",
"z	c #ADC3E7",
"A	c #ABBDE3",
"B	c #91A6D5",
"                ",
"                ",
"    ....        ",
"   .+@@#.       ",
"  .$%&*%=...... ",
"  .-;;>;>;,')!~.",
"  .{]^/^/(!_:<[.",
"  .}/|1123:4567.",
"  .}/128_9450ab.",
"  .c/18_945d6ef.",
"  .}ghij<k06lmn.",
"  .]3o0*pqrestu.",
"  .1vwexyzAtnuB.",
"   ............ ",
"                ",
"                "};
