/* XPM */
static char * dir_noselect_close_mark_xpm[] = {
"16 16 60 1",
" 	c None",
".	c #FFFFFF",
"+	c #000000",
"@	c #7F7F7F",
"#	c #B2C8E6",
"$	c #AFC5E5",
"%	c #BCD3EC",
"&	c #BBD1ED",
"*	c #B0C6E8",
"=	c #F0F7FC",
"-	c #EDF5FB",
";	c #D9E8F7",
">	c #D0E1F4",
",	c #E9F3FB",
"'	c #E3EFF9",
")	c #CEE0F4",
"!	c #C8DCF2",
"~	c #BBD0ED",
"{	c #E8F2FA",
"]	c #E0EDF8",
"^	c #DAE9F6",
"/	c #C9DDF3",
"(	c #C6DAF2",
"_	c #BCD1EE",
":	c #AEC3E6",
"<	c #D9E9F7",
"[	c #D8E8F6",
"}	c #C2D7F0",
"|	c #B5CBEB",
"1	c #A7BAE1",
"2	c #E8F3FA",
"3	c #D6E7F6",
"4	c #D1E3F5",
"5	c #C3D8F1",
"6	c #B2C6E8",
"7	c #A5B7DD",
"8	c #DDEAF7",
"9	c #D5E6F5",
"0	c #D0E2F4",
"a	c #CBDFF3",
"b	c #C4D9F2",
"c	c #B5C9EB",
"d	c #ADC2E5",
"e	c #A1B4DB",
"f	c #D3E4F5",
"g	c #C7DBF1",
"h	c #C0D6F0",
"i	c #BFD3EF",
"j	c #BAD0EE",
"k	c #B6CAEC",
"l	c #ABBFE5",
"m	c #A5B8DF",
"n	c #99ADD9",
"o	c #C1D6EF",
"p	c #B4C8EA",
"q	c #B3C7E9",
"r	c #B0C5E8",
"s	c #ADC3E7",
"t	c #ABBDE3",
"u	c #91A6D5",
"             .. ",
"            .+. ",
"    @@@@   .++. ",
"   @#..$@ .+++. ",
"  @%&.+.*.+++.@ ",
"  @=-.++.+++.;>@",
"  @,'.+++++.)!~@",
"  @{]^.+++./(_:@",
"  @{]<[.+./(}|1@",
"  @2]<34./(5_67@",
"  @{890a!b}_cde@",
"  @'fg}hijk6lmn@",
"  @<op6qrstmenu@",
"   @@@@@@@@@@@@ ",
"                ",
"                "};
