/* XPM */
static char * dir_noselect_open_xpm[] = {
"16 16 61 1",
" 	c None",
".	c #7F7F7F",
"+	c #B4CAE8",
"@	c #C0D6F0",
"#	c #C2D7F0",
"$	c #B0C6E6",
"%	c #AFC5E7",
"&	c #B6CDEC",
"*	c #BDD3EF",
"=	c #B5CBEB",
"-	c #AEC3E6",
";	c #C4D8F2",
">	c #BAD0EE",
",	c #BDD2EF",
"'	c #BCD1EE",
")	c #B4C9EC",
"!	c #B3C8EB",
"~	c #AFC4E9",
"{	c #B1C6E9",
"]	c #B6CAEC",
"^	c #8CA2D4",
"/	c #99ADD9",
"(	c #A6B9E0",
"_	c #EBF4FB",
":	c #EAF3FA",
"<	c #E6F2FA",
"[	c #E5F1F9",
"}	c #E5F0F9",
"|	c #E0EDF8",
"1	c #C7DCEF",
"2	c #829AD0",
"3	c #92A7D6",
"4	c #D9E8F5",
"5	c #DAE8F6",
"6	c #DBEAF7",
"7	c #D9E9F7",
"8	c #D8E8F6",
"9	c #D5E6F5",
"0	c #BCD3EA",
"a	c #7E97CE",
"b	c #879DD1",
"c	c #D3E5F5",
"d	c #D2E4F4",
"e	c #CFE2F3",
"f	c #C1D7ED",
"g	c #A3B9D9",
"h	c #8199CF",
"i	c #D0E3F4",
"j	c #C7DDF1",
"k	c #BDD5EB",
"l	c #7D94CF",
"m	c #CCDFF2",
"n	c #CADEF2",
"o	c #C7DCF1",
"p	c #B8CEEA",
"q	c #9EB3D8",
"r	c #C2D8F0",
"s	c #C1D7EF",
"t	c #BDD4ED",
"u	c #BCD3EC",
"v	c #AFC7E7",
"                ",
"                ",
"    ....        ",
"   .+@#$.       ",
"  .%&**=-...... ",
"  .;>,>'),!~~{].",
" ...........^/(.",
"._:<[[}[}}|1.23.",
".45678787890.ab.",
" .4ccdddddefg.h.",
" .4iiiiiiiejk.l.",
"  .cmnnnnnnopq..",
"  .rrsssssstuv..",
"   ............ ",
"                ",
"                "};
