/* XPM */
static char * dir_subs_close_xpm[] = {
"16 16 83 1",
" 	c None",
".	c #000000",
"+	c #6BE54F",
"@	c #8EF46E",
"#	c #63E349",
"$	c #87EF67",
"%	c #81F163",
"&	c #97F67A",
"*	c #8CF470",
"=	c #83F066",
"-	c #67E94D",
";	c #EAFEDE",
">	c #E5FED8",
",	c #E3FED6",
"'	c #E2FED4",
")	c #DBFDCD",
"!	c #CBFDB9",
"~	c #C7FBB5",
"{	c #BFFCAA",
"]	c #ACFA94",
"^	c #DFFDD1",
"/	c #D5FDC1",
"(	c #D0FCBA",
"_	c #CEFCBA",
":	c #CCFCB6",
"<	c #BEFBA9",
"[	c #B2F999",
"}	c #A9FA90",
"|	c #9CF880",
"1	c #7EF163",
"2	c #DDFDCD",
"3	c #C4FBAB",
"4	c #C2FBA9",
"5	c #BDFBA5",
"6	c #B4FA9C",
"7	c #A8F98F",
"8	c #9FF983",
"9	c #97F77D",
"0	c #81F266",
"a	c #5EE547",
"b	c #DCFDCB",
"c	c #CDFCB8",
"d	c #BCFBA3",
"e	c #B0FA96",
"f	c #A5F98B",
"g	c #98F87E",
"h	c #8EF672",
"i	c #71EE58",
"j	c #48DE38",
"k	c #DDFDCB",
"l	c #C0FBA9",
"m	c #91F775",
"n	c #81F466",
"o	c #64EA4E",
"p	c #44D535",
"q	c #C6FAB2",
"r	c #BAFAA0",
"s	c #AEF993",
"t	c #A5F987",
"u	c #95F87A",
"v	c #6CEF57",
"w	c #5AE543",
"x	c #3ECD2F",
"y	c #D4FDC1",
"z	c #B4F99B",
"A	c #9CF680",
"B	c #90F575",
"C	c #86F46C",
"D	c #7EF264",
"E	c #70EF5B",
"F	c #55E442",
"G	c #44D834",
"H	c #34BF29",
"I	c #C2FBAB",
"J	c #8DF371",
"K	c #6AEC54",
"L	c #66EA50",
"M	c #66EC50",
"N	c #62EA4C",
"O	c #5DE846",
"P	c #50E141",
"Q	c #45D836",
"R	c #2FAB25",
"                ",
"                ",
"    ....        ",
"   .+@@#.       ",
"  .$%&*=-...... ",
"  .;>,',',)!~{].",
"  .^/(_(_:<[}|1.",
"  .2_344567890a.",
"  .bc45def8ghij.",
"  .kcldef8gmnop.",
"  .bqrst|uhnvwx.",
"  .yzAB*CDEoFGH.",
"  .IJKLMNOPQxHR.",
"   ............ ",
"                ",
"                "};
