/* XPM */
static char * dir_subs_close_mark_xpm[] = {
"16 16 69 1",
" 	c None",
".	c #FFFFFF",
"+	c #000000",
"@	c #6BE54F",
"#	c #63E349",
"$	c #87EF67",
"%	c #81F163",
"&	c #67E94D",
"*	c #EAFEDE",
"=	c #E5FED8",
"-	c #BFFCAA",
";	c #ACFA94",
">	c #DFFDD1",
",	c #D5FDC1",
"'	c #A9FA90",
")	c #9CF880",
"!	c #7EF163",
"~	c #DDFDCD",
"{	c #CEFCBA",
"]	c #C4FBAB",
"^	c #9FF983",
"/	c #97F77D",
"(	c #81F266",
"_	c #5EE547",
":	c #DCFDCB",
"<	c #CDFCB8",
"[	c #C2FBA9",
"}	c #BDFBA5",
"|	c #98F87E",
"1	c #8EF672",
"2	c #71EE58",
"3	c #48DE38",
"4	c #DDFDCB",
"5	c #C0FBA9",
"6	c #BCFBA3",
"7	c #B0FA96",
"8	c #91F775",
"9	c #81F466",
"0	c #64EA4E",
"a	c #44D535",
"b	c #C6FAB2",
"c	c #BAFAA0",
"d	c #AEF993",
"e	c #A5F987",
"f	c #95F87A",
"g	c #6CEF57",
"h	c #5AE543",
"i	c #3ECD2F",
"j	c #D4FDC1",
"k	c #B4F99B",
"l	c #9CF680",
"m	c #90F575",
"n	c #8CF470",
"o	c #86F46C",
"p	c #7EF264",
"q	c #70EF5B",
"r	c #55E442",
"s	c #44D834",
"t	c #34BF29",
"u	c #C2FBAB",
"v	c #8DF371",
"w	c #6AEC54",
"x	c #66EA50",
"y	c #66EC50",
"z	c #62EA4C",
"A	c #5DE846",
"B	c #50E141",
"C	c #45D836",
"D	c #2FAB25",
"             .. ",
"            .+. ",
"    ++++   .++. ",
"   +@..#+ .+++. ",
"  +$%.+.&.+++.+ ",
"  +*=.++.+++.-;+",
"  +>,.+++++.')!+",
"  +~{].+++.^/(_+",
"  +:<[}.+.^|123+",
"  +4<567.^|890a+",
"  +:bcde)f19ghi+",
"  +jklmnopq0rst+",
"  +uvwxyzABCitD+",
"   ++++++++++++ ",
"                ",
"                "};
