/* XPM */
static char * dir_subs_open_xpm[] = {
"16 16 67 1",
" 	c None",
".	c #000000",
"+	c #72E856",
"@	c #8CF470",
"#	c #90F575",
"$	c #65E64C",
"%	c #65E74B",
"&	c #77EF5B",
"*	c #87F569",
"=	c #86F468",
"-	c #6FEE56",
";	c #5DE547",
">	c #92F87A",
",	c #7CF460",
"'	c #81F567",
")	c #7FF464",
"!	c #6BF155",
"~	c #83F468",
"{	c #69EE54",
"]	c #5CEC48",
"^	c #64ED4D",
"/	c #6DF157",
"(	c #2BA422",
"_	c #34BF29",
":	c #45DB35",
"<	c #E1FDD3",
"[	c #DFFDCF",
"}	c #DAFDC7",
"|	c #D9FDC5",
"1	c #D8FDC5",
"2	c #D6FDC3",
"3	c #CDFBB9",
"4	c #A1F181",
"5	c #258D1D",
"6	c #30B026",
"7	c #C2F8AA",
"8	c #C1F9AB",
"9	c #C5FBAD",
"0	c #C2FBA9",
"a	c #C1FAA8",
"b	c #B9F99F",
"c	c #89EB67",
"d	c #23801C",
"e	c #289620",
"f	c #B6F99B",
"g	c #B4F999",
"h	c #AFF793",
"i	c #92EF71",
"j	c #4DCA34",
"k	c #25891D",
"l	c #B1F995",
"m	c #B0F894",
"n	c #A2F581",
"o	c #8FEB6B",
"p	c #20811B",
"q	c #A6F789",
"r	c #A4F787",
"s	c #A3F785",
"t	c #9FF680",
"u	c #7CEA5E",
"v	c #41C030",
"w	c #94F476",
"x	c #93F575",
"y	c #8FF470",
"z	c #88F167",
"A	c #86EF65",
"B	c #67E749",
"                ",
"                ",
"    ....        ",
"   .+@#$.       ",
"  .%&*=-;...... ",
"  .>,',)!~{]]^/.",
" ...........(_:.",
".<[}||1|1234.56.",
".7890a0a0abc.de.",
" .7ffggggghij.k.",
" .7llmmmmmhno.p.",
"  .fqrrrrrstuv..",
"  .wxyyyyyyzAB..",
"   ............ ",
"                ",
"                "};
