/* XPM */
static char * doc_index_close_xpm[] = {
"14 14 2 1",
" 	c None",
".	c #000000",
"              ",
"              ",
"  ...   ...   ",
"  ...   ...   ",
"   ... ...    ",
"    .....     ",
"    .....     ",
"     ...      ",
"    .....     ",
"    .....     ",
"   ... ...    ",
"  ...   ...   ",
"  ...   ...   ",
"              "};
