/* XPM */
static char * doc_info_xpm[] = {
"14 14 87 1",
" 	c None",
".	c #000000",
"+	c #030303",
"@	c #4F4F4F",
"#	c #ABABAB",
"$	c #D3D3D3",
"%	c #ADADAD",
"&	c #515151",
"*	c #040404",
"=	c #121212",
"-	c #B1B1B1",
";	c #EFEFEF",
">	c #8F8F8F",
",	c #4C4C4C",
"'	c #939393",
")	c #E7E7E7",
"!	c #B4B4B4",
"~	c #141414",
"{	c #D4D4D4",
"]	c #373737",
"^	c #8E8E8E",
"/	c #929292",
"(	c #0C0C0C",
"_	c #323232",
":	c #CECECE",
"<	c #B6B6B6",
"[	c #505050",
"}	c #EBEBEB",
"|	c #424242",
"1	c #010101",
"2	c #737373",
"3	c #747474",
"4	c #090909",
"5	c #0B0B0B",
"6	c #484848",
"7	c #F6F6F6",
"8	c #555555",
"9	c #919191",
"0	c #0A0A0A",
"a	c #060606",
"b	c #2A2A2A",
"c	c #252525",
"d	c #0E0E0E",
"e	c #161616",
"f	c #B3B3B3",
"g	c #D5D5D5",
"h	c #050505",
"i	c #ACACAC",
"j	c #E0E0E0",
"k	c #080808",
"l	c #7B7B7B",
"m	c #DADADA",
"n	c #D6D6D6",
"o	c #020202",
"p	c #979797",
"q	c #070707",
"r	c #6A6A6A",
"s	c #DBDBDB",
"t	c #B0B0B0",
"u	c #898989",
"v	c #969696",
"w	c #DEDEDE",
"x	c #0F0F0F",
"y	c #B5B5B5",
"z	c #1B1B1B",
"A	c #111111",
"B	c #191919",
"C	c #E4E4E4",
"D	c #5A5A5A",
"E	c #B9B9B9",
"F	c #C0C0C0",
"G	c #262626",
"H	c #181818",
"I	c #BEBEBE",
"J	c #BDBDBD",
"K	c #BABABA",
"L	c #E8E8E8",
"M	c #A5A5A5",
"N	c #4B4B4B",
"O	c #828282",
"P	c #E3E3E3",
"Q	c #171717",
"R	c #595959",
"S	c #DCDCDC",
"T	c #DDDDDD",
"U	c #B7B7B7",
"V	c #5B5B5B",
"     .++.     ",
"   +@#$$%&*   ",
"  =-;>,,')!~  ",
" +-{].^/(_:<* ",
" [}|1.2345678.",
".%90.abcade<f.",
"*g8h*4ij+kdlma",
"*n80*opj1qdrsa",
".tuah.vw15xuy.",
".8)zaA%$xoBCD.",
" *EFGao..HIJh ",
"  eKLMNNOPJQ  ",
"   hR<STUVa   ",
"    ..qq..    "};
