/* XPM */
static char * doc_index_xpm[] = {
"14 14 4 1",
" 	c None",
".	c #1F0000",
"+	c #4D0202",
"@	c #000000",
"........      ",
".++++++.      ",
".+@@@@@@      ",
".+@    @      ",
".+@    @      ",
".+@    @      ",
"...@@@@@      ",
"    @@     @@@",
"    @@@@@@@@@@",
"    @@     @@@",
"    @@        ",
"    @@     @@@",
"    @@@@@@@@@@",
"           @@@"};
