/* XPM */
static char * first_arrow_xpm[] = {
"16 16 30 1",
" 	c None",
".	c #1D2F3F",
"+	c #1D2F40",
"@	c #1C2C3C",
"#	c #3F6588",
"$	c #000000",
"%	c #1C2E3E",
"&	c #5B88B2",
"*	c #5080AD",
"=	c #9EB8D1",
"-	c #192937",
";	c #080D11",
">	c #9CB7D1",
",	c #A4BDD5",
"'	c #B6CADD",
")	c #B2C7DB",
"!	c #AFC5DA",
"~	c #B5C9DC",
"{	c #5F8BB4",
"]	c #97B3CE",
"^	c #A0BAD3",
"/	c #9AB5CF",
"(	c #9BB6D0",
"_	c #4C79A3",
":	c #95B2CE",
"<	c #91B0CC",
"[	c #2A435B",
"}	c #49749C",
"|	c #375978",
"1	c #456F96",
"                ",
".+              ",
"@#     $        ",
"%#    $$        ",
"@#   $&$        ",
"@#  $*=$$$$$$$  ",
"-# ;*>,''')!~$  ",
"%#${]>^/(>>^($  ",
"@$_:^>>>(//=<$  ",
"@#$[########}$  ",
"@# $[##|||||1$  ",
"@#  $[#$$$$$$$  ",
"@#   $[$        ",
"%#    $$        ",
"@%     $        ",
"                "};
