/* XPM */
static char * ignorethread_xpm[] = {
"12 12 37 1",
" 	c None",
".	c #1B2B3C",
"+	c #000000",
"@	c #B6B6B6",
"#	c #264057",
"$	c #233B51",
"%	c #253F56",
"&	c #374E63",
"*	c #606B76",
"=	c #2B2B2B",
"-	c #CACACA",
";	c #334F68",
">	c #E7E7E7",
",	c #FFFFFF",
"'	c #314E6C",
")	c #597187",
"!	c #262626",
"~	c #DFDFDF",
"{	c #F5F5F5",
"]	c #3B5673",
"^	c #506881",
"/	c #E1E1E1",
"(	c #A0A0A0",
"_	c #F0F0F0",
":	c #8091A3",
"<	c #EC8E79",
"[	c #DF421E",
"}	c #EBEBEB",
"|	c #7D8EA0",
"1	c #FCF1EF",
"2	c #FDFBFA",
"3	c #FDF6F4",
"4	c #F9DFDA",
"5	c #303030",
"6	c #FBECE9",
"7	c #FBEAE7",
"8	c #FDF9F8",
"            ",
"   .+++++   ",
"  .@#$%&*=  ",
" +-;>,+')@! ",
"+~{],,+'^/(+",
" +_:'<[[[[[<",
"  +}|[12[34[",
"   5+[2,6,3[",
"     [[1,6[[",
"     [3,7,8[",
"     [18[34[",
"     <[[[[[<"};
