/* XPM */
static char * insert_file_xpm[] = {
"24 24 85 1",
" 	c None",
".	c #000000",
"+	c #FEFEFE",
"@	c #FDFDFD",
"#	c #E0E0E0",
"$	c #C1C1C1",
"%	c #F1F1F1",
"&	c #C3C3C3",
"*	c #FBFBFB",
"=	c #A8A8A8",
"-	c #ADADAD",
";	c #767676",
">	c #5D5D5D",
",	c #404040",
"'	c #F0F0F0",
")	c #E2E2E2",
"!	c #858585",
"~	c #4B4B49",
"{	c #161616",
"]	c #EFEFEF",
"^	c #EEEEEE",
"/	c #C5C5C5",
"(	c #B5C9DC",
"_	c #9BB6D0",
":	c #ECECEC",
"<	c #C4C4C4",
"[	c #4C493C",
"}	c #171612",
"|	c #13120F",
"1	c #AFC5DA",
"2	c #A0BAD3",
"3	c #EBEBEB",
"4	c #474438",
"5	c #B3B3B3",
"6	c #FFFFFF",
"7	c #B2C7DB",
"8	c #9CB7D1",
"9	c #E8E8E8",
"0	c #E6E6E6",
"a	c #E5E5E5",
"b	c #BEBEBE",
"c	c #37352B",
"d	c #B6CADD",
"e	c #E7E7E7",
"f	c #E4E4E4",
"g	c #BDBDBD",
"h	c #151410",
"i	c #A7A7A7",
"j	c #8F8F8F",
"k	c #E3E3E3",
"l	c #BBBBBB",
"m	c #11100D",
"n	c #9AB5CF",
"o	c #C2C2C2",
"p	c #BCBCBC",
"q	c #A0A0A0",
"r	c #434035",
"s	c #6D6D6D",
"t	c #5B88B2",
"u	c #9EB8D1",
"v	c #A4BDD5",
"w	c #312F26",
"x	c #5080AD",
"y	c #3F6588",
"z	c #2A435B",
"A	c #121212",
"B	c #97B3CE",
"C	c #131313",
"D	c #050403",
"E	c #080D11",
"F	c #5F8BB4",
"G	c #95B2CE",
"H	c #12110E",
"I	c #636363",
"J	c #4C79A3",
"K	c #C6C6C6",
"L	c #030303",
"M	c #989898",
"N	c #251F0C",
"O	c #D6D6D6",
"P	c #222222",
"Q	c #3D3D3D",
"R	c #0B0B0B",
"S	c #060606",
"T	c #252525",
"                        ",
"          .........     ",
"         .++++++@#$.    ",
"         .+%%%%%%&*=.   ",
"         .+%%%%%%-;>,.  ",
"         .+%%%%%')!~{.  ",
"      ....+%]]]]]]^^/.  ",
"      .(_.+]]]^^^^^:<.  ",
"  [}||.12.@^^^^^^^^3&.  ",
" 45666.78.@90000000ab.  ",
" c6666.d8.@ee000aaffg.  ",
" h6ijj.d_.@0aaaffkkkl.  ",
" m6....dn.ogggppllllq.  ",
" r6s.tuv28...........   ",
" w666.x888yyz.6A        ",
" r6ijj.xB2yz.j6C        ",
" D66666EFGz.666.        ",
" H6sI6;j.J.Kj66L        ",
" w6666666.66666A        ",
" r6ijj6jjjK6Mj6C        ",
" N6666666666666C        ",
" .O66666666666OP        ",
"  QCACRSPPPPPPT         ",
"                        "};
