/* XPM */
static char * jpilot_xpm[] = {
"16 16 162 2",
"  	c None",
". 	c #030303",
"+ 	c #020202",
"@ 	c #454545",
"# 	c #BEBEBE",
"$ 	c #B3B3B3",
"% 	c #B1B1B1",
"& 	c #AFAFAF",
"* 	c #ADACAD",
"= 	c #AAAAAA",
"- 	c #A6A6A6",
"; 	c #A2A2A2",
"> 	c #999999",
", 	c #3D3D3D",
"' 	c #F2F2F2",
") 	c #969996",
"! 	c #7A807A",
"~ 	c #7C817C",
"{ 	c #777D77",
"] 	c #757B75",
"^ 	c #707570",
"/ 	c #8D8F8D",
"( 	c #B2B2B2",
"_ 	c #252525",
": 	c #3F3E3F",
"< 	c #DBDCDB",
"[ 	c #2A442A",
"} 	c #498749",
"| 	c #4D864D",
"1 	c #4C864C",
"2 	c #4B854B",
"3 	c #498448",
"4 	c #3E573E",
"5 	c #9D9E9D",
"6 	c #262626",
"7 	c #3E3E3E",
"8 	c #D7D9D7",
"9 	c #324F32",
"0 	c #7EBE7E",
"a 	c #88C189",
"b 	c #84BF84",
"c 	c #7EBC7E",
"d 	c #7ABB7A",
"e 	c #74BB74",
"f 	c #436343",
"g 	c #999B99",
"h 	c #262526",
"i 	c #D5D7D5",
"j 	c #304E30",
"k 	c #77B877",
"l 	c #7EBA7F",
"m 	c #73B273",
"n 	c #65AB65",
"o 	c #5FAA5F",
"p 	c #5FAE5F",
"q 	c #416241",
"r 	c #979997",
"s 	c #3C3C3C",
"t 	c #D1D3D1",
"u 	c #314E31",
"v 	c #71B571",
"w 	c #68AE68",
"x 	c #5AA45A",
"y 	c #51A051",
"z 	c #499F49",
"A 	c #4FA74F",
"B 	c #3E613F",
"C 	c #949694",
"D 	c #3B3B3B",
"E 	c #CCCECC",
"F 	c #2F4D2F",
"G 	c #61AD62",
"H 	c #50A250",
"I 	c #4B9F4A",
"J 	c #4DA14D",
"K 	c #479E47",
"L 	c #4EA74E",
"M 	c #3F6140",
"N 	c #929492",
"O 	c #252425",
"P 	c #3A3A3A",
"Q 	c #C8C9C8",
"R 	c #2B4B2B",
"S 	c #50A551",
"T 	c #499F4A",
"U 	c #4B9F4B",
"V 	c #4CA04C",
"W 	c #489E48",
"X 	c #52A852",
"Y 	c #8F918F",
"Z 	c #242424",
"` 	c #383838",
" .	c #C2C4C2",
"..	c #2A4B2A",
"+.	c #4FA54F",
"@.	c #4CA14C",
"#.	c #4BA04B",
"$.	c #58AC58",
"%.	c #8C8E8C",
"&.	c #373737",
"*.	c #BCBEBC",
"=.	c #55A955",
"-.	c #52A652",
";.	c #52A552",
">.	c #51A551",
",.	c #5EB15E",
"'.	c #456445",
").	c #8A8C8A",
"!.	c #242324",
"~.	c #353535",
"{.	c #B5B6B5",
"].	c #2A462A",
"^.	c #59A059",
"/.	c #5C9F5C",
"(.	c #5B9F5B",
"_.	c #65A965",
":.	c #486248",
"<.	c #898A89",
"[.	c #232323",
"}.	c #333333",
"|.	c #BCBDBC",
"1.	c #656A65",
"2.	c #566056",
"3.	c #565F56",
"4.	c #535C53",
"5.	c #535C52",
"6.	c #545C50",
"7.	c #50584D",
"8.	c #707470",
"9.	c #929292",
"0.	c #2F2F2F",
"a.	c #C2C2C2",
"b.	c #A9A9A9",
"c.	c #A6A5A6",
"d.	c #9E9D9E",
"e.	c #999797",
"f.	c #7F8996",
"g.	c #627A96",
"h.	c #6D8095",
"i.	c #909397",
"j.	c #989898",
"k.	c #202020",
"l.	c #303030",
"m.	c #545454",
"n.	c #717171",
"o.	c #727272",
"p.	c #6D6D6D",
"q.	c #696969",
"r.	c #666768",
"s.	c #636567",
"t.	c #626465",
"u.	c #5D5E5E",
"v.	c #404040",
"w.	c #4D4D4D",
"x.	c #595959",
"y.	c #5B5B5B",
"z.	c #5A5A5A",
"A.	c #565656",
"B.	c #525252",
"C.	c #515151",
"D.	c #4A4A4A",
"E.	c #393939",
"      . . . . . . . . . +       ",
"    @ # $ % & * = - ; ; > ,     ",
"    , ' ) ! ~ ! { ] ^ / ( _     ",
"    : < [ } | 1 2 2 3 4 5 6     ",
"    7 8 9 0 a b c d e f g h     ",
"    7 i j k l m n o p q r _     ",
"    s t u v w x y z A B C _     ",
"    D E F G H I J K L M N O     ",
"    P Q R S T U V W X q Y Z     ",
"    `  ...+.@.@.@.#.$.f %.Z     ",
"    &.*...=.-.;.;.>.,.'.).!.    ",
"    ~.{.].^./././.(._.:.<.[.    ",
"    }.|.1.2.3.4.5.6.7.8.9.[.    ",
"    0.a.b.c.d.e.f.g.h.i.j.k.    ",
"    l.m.n.o.p.q.r.s.t.u.v.~.    ",
"      v.w.x.y.z.A.B.C.D.E.      "};
