/* XPM */
static char * key_xpm[] = {
"12 12 3 1",
" 	c None",
".	c #040204",
"+	c #FCFE04",
"            ",
"            ",
"            ",
"            ",
"            ",
"        ... ",
"       .+++.",
"  .....++++.",
" .+++++++.+.",
"  .+.+.++++.",
"   . . .+++.",
"        ... "};
