/* XPM */
static char * mail_send_queue_xpm[] = {
"24 24 138 2",
"  	c None",
". 	c #4F3F0A",
"+ 	c #000000",
"@ 	c #F4E6B5",
"# 	c #F4E5B3",
"$ 	c #EDD684",
"% 	c #755F10",
"& 	c #EDD580",
"* 	c #EED685",
"= 	c #AF8D18",
"- 	c #EFD98C",
"; 	c #EED88B",
"> 	c #EDD582",
", 	c #EED889",
"' 	c #EFDA92",
") 	c #F0DB93",
"! 	c #735D10",
"~ 	c #535353",
"{ 	c #FFFFFF",
"] 	c #F0DC97",
"^ 	c #F6F6F6",
"/ 	c #F5F5F5",
"( 	c #F4F4F4",
"_ 	c #E3E3E3",
": 	c #EEEEEE",
"< 	c #4F4F4F",
"[ 	c #EDD37C",
"} 	c #EDEDED",
"| 	c #AEAEAE",
"1 	c #E4E4E4",
"2 	c #434343",
"3 	c #FDFDFD",
"4 	c #F3F3F3",
"5 	c #E4BF3D",
"6 	c #CBA41C",
"7 	c #D1A81C",
"8 	c #907413",
"9 	c #7C6411",
"0 	c #ACACAC",
"a 	c #C8C8C8",
"b 	c #B5B5B5",
"c 	c #131313",
"d 	c #151515",
"e 	c #A0A0A0",
"f 	c #D4D4D4",
"g 	c #494949",
"h 	c #CCCCCC",
"i 	c #ECEBEC",
"j 	c #CB9934",
"k 	c #EBB13D",
"l 	c #A77E2A",
"m 	c #323232",
"n 	c #606060",
"o 	c #ECECEC",
"p 	c #959595",
"q 	c #666666",
"r 	c #888888",
"s 	c #F2F2F2",
"t 	c #F2F3F2",
"u 	c #3D2E0F",
"v 	c #EEC063",
"w 	c #F0CC81",
"x 	c #DDB96F",
"y 	c #747474",
"z 	c #555555",
"A 	c #4D4D4D",
"B 	c #818181",
"C 	c #C6C6C6",
"D 	c #4A494A",
"E 	c #F5F5F4",
"F 	c #F7F7F7",
"G 	c #2A1F0B",
"H 	c #F4DDAC",
"I 	c #C8AB70",
"J 	c #3D3D3D",
"K 	c #A1A1A1",
"L 	c #6A6A6A",
"M 	c #CECECD",
"N 	c #F9F9F9",
"O 	c #FBFBFB",
"P 	c #FAF9F9",
"Q 	c #30240C",
"R 	c #BB8D30",
"S 	c #191919",
"T 	c #737373",
"U 	c #161616",
"V 	c #F0F0EF",
"W 	c #F7F6F7",
"X 	c #1D1401",
"Y 	c #EFC673",
"Z 	c #0D0D0D",
"` 	c #7C7C7C",
" .	c #656565",
"..	c #171001",
"+.	c #664D1A",
"@.	c #877248",
"#.	c #EEEDED",
"$.	c #9E9E9E",
"%.	c #EDEEED",
"&.	c #ECEDEC",
"*.	c #B2B1B2",
"=.	c #C9C9C9",
"-.	c #F1F1F0",
";.	c #F2F2F3",
">.	c #F0F0F0",
",.	c #C2C2C2",
"'.	c #454545",
").	c #EEEEED",
"!.	c #CECECE",
"~.	c #989898",
"{.	c #BCBCBC",
"].	c #636363",
"^.	c #484848",
"/.	c #D3D3D3",
"(.	c #EEEFEF",
"_.	c #EFEFEF",
":.	c #EFEEEE",
"<.	c #EBEAEB",
"[.	c #EDEDEC",
"}.	c #E7E7E7",
"|.	c #B4B4B4",
"1.	c #444444",
"2.	c #676767",
"3.	c #838383",
"4.	c #D1D1D2",
"5.	c #EBEBEB",
"6.	c #F1F1F1",
"7.	c #6D6D6D",
"8.	c #EFEFF0",
"9.	c #E7E8E7",
"0.	c #B5B4B4",
"a.	c #646464",
"b.	c #464646",
"c.	c #B5B6B6",
"d.	c #B8B7B7",
"e.	c #B3B4B4",
"f.	c #575757",
"g.	c #525252",
"                                                ",
"                      .                         ",
"                    + @ +                       ",
"                  + # $ % +                     ",
"                + # & * = % +                   ",
"              + # - ; > = = % +                 ",
"            + # , ' , > = = = % +               ",
"      + + + + + + ) $ & = ! + + + + + +         ",
"    + ~ { { { { + ] $ $ = ! + ^ / ( _ ~ +       ",
"    + : < { / ( + , [ $ = ! + : } _ < | +       ",
"    + { 1 2 3 4 + 5 6 7 8 9 + } _ < 0 a +       ",
"    + b < c + d + + + + + + + _ 2 e f a +       ",
"    + g h i j k l m n f } o _ < p f 1 a +       ",
"  q r s ^ t u v w x y z o _ A B C 1 1 a +       ",
"  D E ^ F ^ G k k H I J K < L C C / 1 a +       ",
"~ M ^ N O P Q k k k w R S p C T C / 1 a +       ",
"U V W O { O X k k k Y R Z C 1 1 ` 1 1 a +       ",
"+ s  .P O N ..+.k k @.R + / / / 1 ` 1 a +       ",
"U #.( ^ F ^ 0 m $.%.&.*.c 1 1 1 1 1 ` a +       ",
"~ =.-.;.4 ;.>.,.'.).!.~.J {.{.{.{.{.{.].+       ",
"  ^./.(._.:.} <.[.}.|.1.+ + + + + + + +         ",
"  2.3.4.5.6.7.8.9.0.a.z                         ",
"    q b.| c.d.e.~.f.n                           ",
"        g.U + U g.                              "};
