/* XPM */
static char * mail_receive_xpm[] = {
"24 24 66 1",
" 	c None",
".	c #000000",
"+	c #C9DBC7",
"@	c #C9DAC7",
"#	c #819A79",
"$	c #58754D",
"%	c #B2C9B0",
"&	c #A9C4A7",
"*	c #ADC8AB",
"=	c #5B7950",
"-	c #4D6744",
";	c #BBD0B9",
">	c #AEC7AC",
",	c #2B2B2B",
"'	c #B9CEB7",
")	c #AAC7A8",
"!	c #CDDECB",
"~	c #B1C9B0",
"{	c #B5CEB5",
"]	c #B0C9B0",
"^	c #ADC6AB",
"/	c #4D6844",
"(	c #B4CBB2",
"_	c #B3CAB1",
":	c #B0C7AE",
"<	c #535353",
"[	c #FFFFFF",
"}	c #FEFEFE",
"|	c #54714A",
"1	c #F7F7F7",
"2	c #F6F6F6",
"3	c #F5F5F5",
"4	c #F4F4F4",
"5	c #E3E3E3",
"6	c #EEEEEE",
"7	c #4F4F4F",
"8	c #F3F3F3",
"9	c #F2F2F2",
"0	c #CFDFCC",
"a	c #F0F0F0",
"b	c #EFEFEF",
"c	c #EDEDED",
"d	c #AEAEAE",
"e	c #E4E4E4",
"f	c #434343",
"g	c #FDFDFD",
"h	c #F1F1F1",
"i	c #2D2D2D",
"j	c #ACACAC",
"k	c #C8C8C8",
"l	c #FBFBFB",
"m	c #A0A0A0",
"n	c #D4D4D4",
"o	c #F8F8F8",
"p	c #ECECEC",
"q	c #959595",
"r	c #3E3E3E",
"s	c #4D4D4D",
"t	c #818181",
"u	c #C6C6C6",
"v	c #6A6A6A",
"w	c #636363",
"x	c #B9B9B9",
"y	c #737373",
"z	c #7C7C7C",
"A	c #BCBCBC",
"        .......         ",
"        .+@@#$.         ",
"        .%&*=-.         ",
"        .;>>=-.         ",
"     ,...'>)=-....      ",
"      .!~{]^===/.       ",
"       .!(_^==/.        ",
"   ......!):=/......    ",
"  .<[[[[}.!*|.12345<.   ",
"  .67[3489.0.ab6c57d.   ",
"  .[efg899hib66c57jk.   ",
"  .[3e7lhaab6cc5fmnk.   ",
"  .[l3efoab6cp57qnek.   ",
"  .[333er36cp5stueek.   ",
"  .[l33evf8p57vuu3ek.   ",
"  .[33ew[x7a7quyu3ek.   ",
"  .[lew[3en7jueezeek.   ",
"  .[ey[3333ee333ezek.   ",
"  .[z[eeeeeeeeeeeezk.   ",
"  .yAAAAAAAAAAAAAAAw.   ",
"   .................    ",
"                        ",
"                        ",
"                        "};
