/* XPM */
static char * mail_privacy_encrypted_xpm[] = {
"24 24 164 2",
"  	c None",
". 	c #4E4E4E",
"+ 	c #303030",
"@ 	c #000000",
"# 	c #ABA8A7",
"$ 	c #EBEBEB",
"% 	c #E5E5E5",
"& 	c #CFCFCF",
"* 	c #BABABA",
"= 	c #DDDDDD",
"- 	c #868686",
"; 	c #6E6E6E",
"> 	c #ECEFF2",
", 	c #E7EAEE",
"' 	c #E1E6EB",
") 	c #DBE1E9",
"! 	c #D5DDE5",
"~ 	c #CBD4DD",
"{ 	c #B4BDC6",
"] 	c #AFB8C4",
"^ 	c #BBC7D4",
"/ 	c #BAC7D5",
"( 	c #B4C2D2",
"_ 	c #AFBED0",
": 	c #A8BACC",
"< 	c #A3B5C9",
"[ 	c #9DB1C6",
"} 	c #E8ECF0",
"| 	c #E3E7ED",
"1 	c #DDE3E9",
"2 	c #D7DEE6",
"3 	c #CCD5DE",
"4 	c #A3AAB3",
"5 	c #54585C",
"6 	c #52565B",
"7 	c #96A0AC",
"8 	c #B2C0CF",
"9 	c #B0C0D0",
"0 	c #AABBCD",
"a 	c #A5B6CB",
"b 	c #9FB1C7",
"c 	c #99ADC3",
"d 	c #E4E8ED",
"e 	c #DEE3EA",
"f 	c #D9E0E7",
"g 	c #D3DBE4",
"h 	c #B5BDC7",
"i 	c #525559",
"j 	c #1E1F21",
"k 	c #1D1F21",
"l 	c #4C5156",
"m 	c #9DAAB9",
"n 	c #ABBCCE",
"o 	c #A6B7CB",
"p 	c #A0B3C8",
"q 	c #9BAFC5",
"r 	c #95AAC1",
"s 	c #E0E5EB",
"t 	c #DAE1E8",
"u 	c #D4DCE5",
"v 	c #CED8E2",
"w 	c #B1B9C3",
"x 	c #474A4F",
"y 	c #17191B",
"z 	c #17181A",
"A 	c #41464B",
"B 	c #98A6B5",
"C 	c #A8B8CC",
"D 	c #A1B4C8",
"E 	c #9CB0C6",
"F 	c #96ACC2",
"G 	c #91A6BF",
"H 	c #DBE2E9",
"I 	c #D6DDE6",
"J 	c #D0D9E3",
"K 	c #CAD4DF",
"L 	c #BFCAD5",
"M 	c #8F98A2",
"N 	c #292C2F",
"O 	c #292C2E",
"P 	c #828E9B",
"Q 	c #A4B3C6",
"R 	c #A4B5C9",
"S 	c #97ACC3",
"T 	c #92A8C0",
"U 	c #8CA3BD",
"V 	c #D7DEE7",
"W 	c #D2DAE3",
"X 	c #CCD5E0",
"Y 	c #C7D1DD",
"Z 	c #C0CBD9",
"` 	c #9EA9B6",
" .	c #2D3134",
"..	c #2C2F34",
"+.	c #909DAD",
"@.	c #9FB2C7",
"#.	c #99ADC4",
"$.	c #94A9C1",
"%.	c #8EA5BE",
"&.	c #89A0BA",
"*.	c #CDD6E1",
"=.	c #C8D2DE",
"-.	c #C2CEDB",
";.	c #BCC8D6",
">.	c #9BA6B4",
",.	c #2C3034",
"'.	c #2B2F33",
").	c #8C9BAB",
"!.	c #9FB2C6",
"~.	c #9BAFC4",
"{.	c #95AAC2",
"].	c #8FA6BF",
"^.	c #8AA1BB",
"/.	c #859DB9",
"(.	c #CFD8E2",
"_.	c #C9D3DE",
":.	c #C4CFDB",
"<.	c #BECAD9",
"[.	c #B7C5D4",
"}.	c #97A3B1",
"|.	c #2A2E33",
"1.	c #8998A9",
"2.	c #96ABC2",
"3.	c #91A7BF",
"4.	c #8CA2BC",
"5.	c #859FB9",
"6.	c #819AB6",
"7.	c #C5D0DD",
"8.	c #BFCBD9",
"9.	c #BAC7D6",
"0.	c #99A6B5",
"a.	c #3E454C",
"b.	c #3C434A",
"c.	c #8A9AAD",
"d.	c #97ACC2",
"e.	c #93A8C0",
"f.	c #8DA4BD",
"g.	c #879FBA",
"h.	c #819BB7",
"i.	c #7C96B4",
"j.	c #C1CDDA",
"k.	c #BBC8D7",
"l.	c #B6C4D3",
"m.	c #B0BFD0",
"n.	c #A6B6C8",
"o.	c #90A0B1",
"p.	c #8B9BAE",
"q.	c #95A9BF",
"r.	c #94AAC1",
"s.	c #89A1BB",
"t.	c #839CB8",
"u.	c #7E97B5",
"v.	c #7994B2",
"w.	c #C3CEDB",
"x.	c #BDC9D7",
"y.	c #B7C5D5",
"z.	c #B2C1D2",
"A.	c #ACBCCF",
"B.	c #A6B8CB",
"C.	c #9BAEC5",
"D.	c #90A6BE",
"E.	c #8AA2BB",
"F.	c #7F99B6",
"G.	c #7A94B2",
"                                                ",
"                                                ",
"                  . + @ @ @ +                   ",
"                @ # $ $ % % & . @               ",
"              @ & $ * @ @ @ = & . @             ",
"            . # $ - @       @ = * .             ",
"            + $ * @           @ = ; .           ",
"            @ % - @           @ % # @           ",
"            @ = ; @           @ % * @           ",
"          @ @ = ; @ @ @ @ @ @ @ % * @ @         ",
"        @ > , ' ) ! ~ { ] ^ / ( _ : < [ @       ",
"        @ } | 1 2 3 4 5 6 7 8 9 0 a b c @       ",
"        @ d e f g h i j k l m n o p q r @       ",
"        @ s t u v w x y z A B C D E F G @       ",
"        @ H I J K L M N O P Q R [ S T U @       ",
"        @ V W X Y Z `  ...+.< @.#.$.%.&.@       ",
"        @ g *.=.-.;.>.,.'.).!.~.{.].^./.@       ",
"        @ (._.:.<.[.}.'.|.1.q 2.3.4.5.6.@       ",
"        @ K 7.8.9.( 0.a.b.c.d.e.f.g.h.i.@       ",
"        @ Y j.k.l.m.n.o.p.q.r.%.s.t.u.v.@       ",
"        @ w.x.y.z.A.B.p C.{.D.E./.F.G.v.@       ",
"          @ @ @ @ @ @ @ @ @ @ @ @ @ @ @         ",
"                                                ",
"                                                "};
