/* XPM */
static char * mail_draft_xpm[] = {
"24 24 55 1",
" 	c None",
".	c #000000",
"+	c #B8CADB",
"@	c #C5D4E3",
"#	c #687B8D",
"$	c #D8D8D8",
"%	c #CFDBE6",
"&	c #9DB8D2",
"*	c #728699",
"=	c #BCCEDF",
"-	c #FFFFFF",
";	c #D2DEEA",
">	c #C0D1E2",
",	c #CFDBE7",
"'	c #798EA3",
")	c #D0DDE9",
"!	c #B7CBDE",
"~	c #B6CADD",
"{	c #B7CADD",
"]	c #BACCDF",
"^	c #9FB9D3",
"/	c #535353",
"(	c #FEFEFE",
"_	c #FDFDFD",
":	c #7E94A9",
"<	c #EEEEEE",
"[	c #4F4F4F",
"}	c #F5F5F5",
"|	c #F4F4F4",
"1	c #F3F3F3",
"2	c #F2F2F2",
"3	c #A4BDD5",
"4	c #BABABA",
"5	c #E4E4E4",
"6	c #434343",
"7	c #FBFBFB",
"8	c #F1F1F1",
"9	c #F0F0F0",
"0	c #F8F8F8",
"a	c #3E3E3E",
"b	c #556474",
"c	c #2A303A",
"d	c #6A6A6A",
"e	c #ECECEC",
"f	c #E3E3E3",
"g	c #C6C6C6",
"h	c #C8C8C8",
"i	c #636363",
"j	c #B9B9B9",
"k	c #959595",
"l	c #737373",
"m	c #D4D4D4",
"n	c #ACACAC",
"o	c #7C7C7C",
"p	c #BCBCBC",
"                        ",
"           ............ ",
"          .+@#$$$$$$%&*.",
"          .=&#------;&*.",
"          .>&#$$$$$$,&*.",
"          .>&'------)&*.",
"          .>&&!~~{{]^&*.",
"   ........>&&&&&&&&&&*.",
"  ./----(_.>&&::::::&&*.",
"  .<[-}|12.>3:$$4$-$:&*.",
"  .-56_122.>&:$4$-:$:&*.",
"  .-}5[789.>&:$4-$:$:&*.",
"  .-7}5609.=&:4$-$$$:**.",
"  .-}}}5a}<.b........c. ",
"  .-7}}5d61ef[dgg}5h.   ",
"  .-}}5i-j[9[kglg}5h.   ",
"  .-75i-}5m[ng55o55h.   ",
"  .-5l-}}}}55}}}5o5h.   ",
"  .-o-555555555555oh.   ",
"  .lpppppppppppppppi.   ",
"   .................    ",
"                        ",
"                        ",
"                        "};
