/* XPM */
static char * mail_receive_all_xpm[] = {
"24 24 85 1",
" 	c None",
".	c #000000",
"+	c #C9DBC7",
"@	c #C9DAC7",
"#	c #819A79",
"$	c #58754D",
"%	c #B2C9B0",
"&	c #A9C4A7",
"*	c #ADC8AB",
"=	c #5B7950",
"-	c #4D6744",
";	c #BBD0B9",
">	c #AEC7AC",
",	c #2B2B2B",
"'	c #B9CEB7",
")	c #AAC7A8",
"!	c #CDDECB",
"~	c #B1C9B0",
"{	c #B5CEB5",
"]	c #B0C9B0",
"^	c #ADC6AB",
"/	c #4D6844",
"(	c #B4CBB2",
"_	c #B3CAB1",
":	c #535353",
"<	c #FFFFFF",
"[	c #FEFEFE",
"}	c #FDFDFD",
"|	c #B0C7AE",
"1	c #F4F4F4",
"2	c #E3E3E3",
"3	c #EEEEEE",
"4	c #4F4F4F",
"5	c #F5F5F5",
"6	c #F3F3F3",
"7	c #F2F2F2",
"8	c #54714A",
"9	c #EDEDED",
"0	c #AEAEAE",
"a	c #E4E4E4",
"b	c #434343",
"c	c #F1F1F1",
"d	c #F0F0F0",
"e	c #CFDFCC",
"f	c #ACACAC",
"g	c #C8C8C8",
"h	c #FBFBFB",
"i	c #EFEFEF",
"j	c #2D2D2D",
"k	c #A0A0A0",
"l	c #D4D4D4",
"m	c #D3D3D3",
"n	c #525252",
"o	c #F8F8F8",
"p	c #ECECEC",
"q	c #959595",
"r	c #BABABA",
"s	c #494949",
"t	c #3E3E3E",
"u	c #4D4D4D",
"v	c #818181",
"w	c #C6C6C6",
"x	c #414141",
"y	c #6A6A6A",
"z	c #838383",
"A	c #C5C5C5",
"B	c #636363",
"C	c #B9B9B9",
"D	c #737373",
"E	c #7C7C7C",
"F	c #BBBBBB",
"G	c #C9C9C9",
"H	c #BCBCBC",
"I	c #6B6B6B",
"J	c #686868",
"K	c #D6D6D6",
"L	c #D2D2D2",
"M	c #666666",
"N	c #C0C0C0",
"O	c #CDCDCD",
"P	c #787878",
"Q	c #C7C7C7",
"R	c #AFAFAF",
"S	c #B1B1B1",
"T	c #B6B6B6",
"        .......         ",
"        .+@@#$.         ",
"        .%&*=-.         ",
"        .;>>=-.         ",
"     ,...'>)=-....      ",
"      .!~{]^===/.       ",
" .......!(_^==/...      ",
".:<<<<[}.!)|=/.12:.     ",
".34<51677.!*8.9240.     ",
".<ab}677cd.e.924fg....  ",
".<5a4hcddi3j92bklg.gmn. ",
".<h5abodi39p24qlag.rsf. ",
".<555at539p2uvwaag.xkw. ",
".<h55ayb6p24yww5ag.zAw. ",
".<55aB<C4d4qwDw5ag.0lw. ",
".<haB<5al4fwaaEaag.Flw. ",
".<aD<5555aa555aEag.Glw. ",
".<E<aaaaaaaaaaaaEg.Glw. ",
".DHHHHHHHHHHHHHHHB.Flw. ",
" .................IJKw. ",
"    .LMLFFFFFFFFFFNOPQ. ",
"    .IRRRRRRRRRRRRSTrB. ",
"     .................  ",
"                        "};
