/* XPM */
static char * mail_reply_to_all_xpm[] = {
"24 24 98 2",
"  	c None",
". 	c #030003",
"+ 	c #5A405A",
"@ 	c #1F2C61",
"# 	c #41518B",
"$ 	c #848E64",
"% 	c #24326C",
"& 	c #152254",
"* 	c #162661",
"= 	c #000000",
"- 	c #FFF1E6",
"; 	c #FEDFB9",
"> 	c #DD9C73",
", 	c #B1693F",
"' 	c #B07147",
") 	c #0C163F",
"! 	c #535353",
"~ 	c #FFFFFF",
"{ 	c #FEFEFE",
"] 	c #FDD17B",
"^ 	c #BF8270",
"/ 	c #FFE6C1",
"( 	c #B16637",
"_ 	c #C37B43",
": 	c #B16E49",
"< 	c #0D173F",
"[ 	c #EEEEEE",
"} 	c #4F4F4F",
"| 	c #F5F5F5",
"1 	c #F4F4F4",
"2 	c #F3F3F3",
"3 	c #F0B66B",
"4 	c #512311",
"5 	c #FFF0DE",
"6 	c #2E1307",
"7 	c #AE6535",
"8 	c #CD8C5E",
"9 	c #C07D4D",
"0 	c #E4E4E4",
"a 	c #434343",
"b 	c #FDFDFD",
"c 	c #F2F2F2",
"d 	c #FFEDD9",
"e 	c #B46E3B",
"f 	c #DC9956",
"g 	c #E4A159",
"h 	c #D18C4E",
"i 	c #96532B",
"j 	c #FBFBFB",
"k 	c #F1F1F1",
"l 	c #FFE7C8",
"m 	c #EEBF9B",
"n 	c #EEB164",
"o 	c #D08A4C",
"p 	c #1D1A1D",
"q 	c #F8F8F8",
"r 	c #F3B86A",
"s 	c #CD8A64",
"t 	c #BC753F",
"u 	c #D0874A",
"v 	c #B36D39",
"w 	c #2B292B",
"x 	c #3E3E3E",
"y 	c #3D1A13",
"z 	c #6A6A6A",
"A 	c #C6C6C6",
"B 	c #C8C8C8",
"C 	c #636363",
"D 	c #B9B9B9",
"E 	c #737373",
"F 	c #EAC0BA",
"G 	c #D4D4D4",
"H 	c #ACACAC",
"I 	c #7C7C7C",
"J 	c #DF9E95",
"K 	c #E0A198",
"L 	c #E1A59D",
"M 	c #E2A79E",
"N 	c #E3ABA3",
"O 	c #E3AAA2",
"P 	c #CC6253",
"Q 	c #DD978D",
"R 	c #DF9F97",
"S 	c #DE9A90",
"T 	c #DD968C",
"U 	c #DD948A",
"V 	c #B14334",
"W 	c #BCBCBC",
"X 	c #431913",
"Y 	c #EAC2BC",
"Z 	c #DF9C92",
"` 	c #DD998F",
" .	c #B54535",
"..	c #65261D",
"+.	c #983A2C",
"@.	c #7C2F24",
"#.	c #63251D",
"$.	c #6C291F",
"                                                ",
"                                . . . . . +     ",
"                              . @ # $ % & * .   ",
"        = = = = = = = . . . . . - ; > , ' ) .   ",
"      = ! ~ ~ ~ ~ { . ] ] ] ] . ^ / ( _ : < .   ",
"      = [ } ~ | 1 2 . - ; > 3 . 4 5 6 7 8 9 .   ",
"      = ~ 0 a b 2 c . ^ / ( _ . d e f g h i .   ",
"      = ~ | 0 } j k . 4 5 6 7 . l m f n o . p   ",
"      = ~ j | 0 a q . d e f g r . s t u v w     ",
"      = ~ | | | 0 x . l m f n . . . . . . =     ",
"      = ~ j y | 0 z a . s t u . A A | 0 B =     ",
"      = ~ = = 0 C ~ D . . . . . E A | 0 B =     ",
"      = = F = C ~ | 0 G } H A 0 0 I 0 0 B =     ",
"      = F J = = = = = = = 0 | | | 0 I 0 B =     ",
"    = F K L M N M O J P = 0 0 0 0 0 0 I B =     ",
"  = F Q R J S T T S U V = W W W W W W W C =     ",
"X Y S Z ` ` Q S S S S  .= = = = = = = = =       ",
"  = ..+.+.+.+.+.+.+.+.@.=                       ",
"    = ..+.+.#.#.#.#.#.$.=                       ",
"      = ..+.= = = = = = =                       ",
"        = ..=                                   ",
"          = =                                   ",
"            =                                   ",
"                                                "};
