/* XPM */
static char * mail_reply_to_list_xpm[] = {
"24 24 87 1",
" 	c None",
".	c #434035",
"+	c #3D3A30",
"@	c #3E3B31",
"#	c #282210",
"$	c #000000",
"%	c #404040",
"&	c #363636",
"*	c #252525",
"=	c #312F26",
"-	c #FFFFFF",
";	c #D6D6D6",
">	c #1B1B1B",
",	c #A7A7A7",
"'	c #8F8F8F",
")	c #141414",
"!	c #050403",
"~	c #020202",
"{	c #535353",
"]	c #FEFEFE",
"^	c #FDFDFD",
"/	c #FCFCFC",
"(	c #FBFBFB",
"_	c #F9F9F9",
":	c #F8F8F8",
"<	c #12110E",
"[	c #6D6D6D",
"}	c #636363",
"|	c #767676",
"1	c #EEEEEE",
"2	c #4F4F4F",
"3	c #F5F5F5",
"4	c #F4F4F4",
"5	c #F3F3F3",
"6	c #F2F2F2",
"7	c #F1F1F1",
"8	c #F0F0F0",
"9	c #131313",
"0	c #E4E4E4",
"a	c #434343",
"b	c #EFEFEF",
"c	c #121212",
"d	c #EDEDED",
"e	c #251F0C",
"f	c #ECECEC",
"g	c #3E3E3E",
"h	c #E3E3E3",
"i	c #969696",
"j	c #3D3D3D",
"k	c #0B0B0B",
"l	c #060606",
"m	c #222222",
"n	c #3D1A13",
"o	c #6A6A6A",
"p	c #C6C6C6",
"q	c #C8C8C8",
"r	c #B9B9B9",
"s	c #959595",
"t	c #737373",
"u	c #EAC0BA",
"v	c #D4D4D4",
"w	c #ACACAC",
"x	c #7C7C7C",
"y	c #DF9E95",
"z	c #E0A198",
"A	c #E1A59D",
"B	c #E2A79E",
"C	c #E3ABA3",
"D	c #E3AAA2",
"E	c #CC6253",
"F	c #DD978D",
"G	c #DF9F97",
"H	c #DE9A90",
"I	c #DD968C",
"J	c #DD948A",
"K	c #B14334",
"L	c #BCBCBC",
"M	c #431913",
"N	c #EAC2BC",
"O	c #DF9C92",
"P	c #DD998F",
"Q	c #B54535",
"R	c #65261D",
"S	c #983A2C",
"T	c #7C2F24",
"U	c #63251D",
"V	c #6C291F",
"               .+@#$%&* ",
"               =------;>",
"               .-,''-'-)",
"    $$$$$$$$$$$!-------~",
"   ${----]^/(_:<-[}-|'-~",
"   $12-34566788=-------9",
"   $-0a^56678b1.-,''-'-c",
"   $-302(788b1de-------9",
"   $-(30a:8b1df$;------$",
"   $-3330g31dfhij9c9klmm",
"   $-(n30oa5fh2opp30q$  ",
"   $-$$0}-r282sptp30q$  ",
"   $$u$}-30v2wp00x00q$  ",
"   $uy$$$$$$$03330x0q$  ",
"  $uzABCBDyE$000000xq$  ",
" $uFGyHIIHJK$LLLLLLL}$  ",
"MNHOPPFHHHHQ$$$$$$$$$   ",
" $RSSSSSSSST$           ",
"  $RSSUUUUUV$           ",
"   $RS$$$$$$$           ",
"    $R$                 ",
"     $$                 ",
"      $                 ",
"                        "};
