/* XPM */
static char * mail_reply_to_author_xpm[] = {
"24 24 105 2",
"  	c None",
". 	c #030003",
"+ 	c #5A405A",
"@ 	c #1F2C61",
"# 	c #41518B",
"$ 	c #848E64",
"% 	c #24326C",
"& 	c #152254",
"* 	c #162661",
"= 	c #000000",
"- 	c #FFF1E6",
"; 	c #FEDFB9",
"> 	c #DD9C73",
", 	c #B1693F",
"' 	c #B07147",
") 	c #0C163F",
"! 	c #535353",
"~ 	c #FFFFFF",
"{ 	c #FEFEFE",
"] 	c #FDFDFD",
"^ 	c #FCFCFC",
"/ 	c #FBFBFB",
"( 	c #F9F9F9",
"_ 	c #F8F8F8",
": 	c #BF8270",
"< 	c #FFE6C1",
"[ 	c #B16637",
"} 	c #C37B43",
"| 	c #B16E49",
"1 	c #0D173F",
"2 	c #EEEEEE",
"3 	c #4F4F4F",
"4 	c #F5F5F5",
"5 	c #F4F4F4",
"6 	c #F3F3F3",
"7 	c #F2F2F2",
"8 	c #F1F1F1",
"9 	c #F0F0F0",
"0 	c #512311",
"a 	c #FFF0DE",
"b 	c #2E1307",
"c 	c #AE6535",
"d 	c #CD8C5E",
"e 	c #C07D4D",
"f 	c #E4E4E4",
"g 	c #434343",
"h 	c #EFEFEF",
"i 	c #FFEDD9",
"j 	c #B46E3B",
"k 	c #DC9956",
"l 	c #E4A159",
"m 	c #D18C4E",
"n 	c #96532B",
"o 	c #EDEDED",
"p 	c #FFE7C8",
"q 	c #EEBF9B",
"r 	c #EEB164",
"s 	c #D08A4C",
"t 	c #1D1A1D",
"u 	c #ECECEC",
"v 	c #E3E3E3",
"w 	c #CD8A64",
"x 	c #BC753F",
"y 	c #D0874A",
"z 	c #B36D39",
"A 	c #2B292B",
"B 	c #323032",
"C 	c #3E3E3E",
"D 	c #4D4D4D",
"E 	c #3D1A13",
"F 	c #6A6A6A",
"G 	c #C6C6C6",
"H 	c #C8C8C8",
"I 	c #636363",
"J 	c #B9B9B9",
"K 	c #959595",
"L 	c #737373",
"M 	c #EAC0BA",
"N 	c #D4D4D4",
"O 	c #ACACAC",
"P 	c #7C7C7C",
"Q 	c #DF9E95",
"R 	c #E0A198",
"S 	c #E1A59D",
"T 	c #E2A79E",
"U 	c #E3ABA3",
"V 	c #E3AAA2",
"W 	c #CC6253",
"X 	c #DD978D",
"Y 	c #DF9F97",
"Z 	c #DE9A90",
"` 	c #DD968C",
" .	c #DD948A",
"..	c #B14334",
"+.	c #BCBCBC",
"@.	c #431913",
"#.	c #EAC2BC",
"$.	c #DF9C92",
"%.	c #DD998F",
"&.	c #B54535",
"*.	c #65261D",
"=.	c #983A2C",
"-.	c #7C2F24",
";.	c #63251D",
">.	c #6C291F",
"                                                ",
"                                . . . . . +     ",
"                              . @ # $ % & * .   ",
"        = = = = = = = = = = = . - ; > , ' ) .   ",
"      = ! ~ ~ ~ ~ { ] ^ / ( _ . : < [ } | 1 .   ",
"      = 2 3 ~ 4 5 6 7 7 8 9 9 . 0 a b c d e .   ",
"      = ~ f g ] 6 7 7 8 9 h 2 . i j k l m n .   ",
"      = ~ 4 f 3 / 8 9 9 h 2 o . p q k r s . t   ",
"      = ~ / 4 f g _ 9 h 2 o u v . w x y z A B   ",
"      = ~ 4 4 4 f C 4 2 o u v D . . . . . =     ",
"      = ~ / E 4 f F g 6 u v 3 F G G 4 f H =     ",
"      = ~ = = f I ~ J 3 9 3 K G L G 4 f H =     ",
"      = = M = I ~ 4 f N 3 O G f f P f f H =     ",
"      = M Q = = = = = = = f 4 4 4 f P f H =     ",
"    = M R S T U T V Q W = f f f f f f P H =     ",
"  = M X Y Q Z ` ` Z  ...= +.+.+.+.+.+.+.I =     ",
"@.#.Z $.%.%.X Z Z Z Z &.= = = = = = = = =       ",
"  = *.=.=.=.=.=.=.=.=.-.=                       ",
"    = *.=.=.;.;.;.;.;.>.=                       ",
"      = *.=.= = = = = = =                       ",
"        = *.=                                   ",
"          = =                                   ",
"            =                                   ",
"                                                "};
