/* XPM */
static char * mail_compose_xpm[] = {
"24 24 62 1",
" 	c None",
".	c #000000",
"+	c #BAA88F",
"@	c #836B4E",
"#	c #C5A985",
"$	c #DC9E55",
"%	c #9E6233",
"&	c #C3A783",
"*	c #DD9D53",
"=	c #A76631",
"-	c #C5AA88",
";	c #A86631",
">	c #C3A47A",
",	c #DD9D52",
"'	c #A66430",
")	c #C2A174",
"!	c #DC9B4E",
"~	c #A96630",
"{	c #535353",
"]	c #FFFFFF",
"^	c #FEFEFE",
"/	c #FDFDFD",
"(	c #FCFCFC",
"_	c #FBFBFB",
":	c #F9F9F9",
"<	c #F8F8F8",
"[	c #BEA686",
"}	c #DD9D51",
"|	c #AA682F",
"1	c #EEEEEE",
"2	c #4F4F4F",
"3	c #F5F5F5",
"4	c #F4F4F4",
"5	c #F3F3F3",
"6	c #F2F2F2",
"7	c #F1F1F1",
"8	c #F0F0F0",
"9	c #BCAC9B",
"0	c #A86E3F",
"a	c #AEAEAE",
"b	c #E4E4E4",
"c	c #434343",
"d	c #EFEFEF",
"e	c #ACACAC",
"f	c #C8C8C8",
"g	c #E3E3E3",
"h	c #A0A0A0",
"i	c #D4D4D4",
"j	c #EDEDED",
"k	c #EAEAEA",
"l	c #959595",
"m	c #3E3E3E",
"n	c #ECECEC",
"o	c #4D4D4D",
"p	c #818181",
"q	c #C6C6C6",
"r	c #6A6A6A",
"s	c #636363",
"t	c #B9B9B9",
"u	c #737373",
"v	c #7C7C7C",
"w	c #BCBCBC",
"                        ",
"                     .. ",
"                    .+@.",
"                   .#$%.",
"                  .&*=. ",
"                 .-*;.  ",
"                .>,'.   ",
"   .............)!~.    ",
"  .{]]]]^/(_:<.[}|.{.   ",
"  .12]34566788.90.2a.   ",
"  .]bc/56678d....2ef.   ",
"  .]3b2_788d1..gchif.   ",
"  .]_3bc<8d1jkg2libf.   ",
"  .]333bm31jngopqbbf.   ",
"  .]_33brc5ng2rqq3bf.   ",
"  .]33bs]t282lquq3bf.   ",
"  .]_bs]3bi2eqbbvbbf.   ",
"  .]bu]3333bb333bvbf.   ",
"  .]v]bbbbbbbbbbbbvf.   ",
"  .uwwwwwwwwwwwwwwws.   ",
"   .................    ",
"                        ",
"                        ",
"                        "};
