/* XPM */
static char * mail_privacy_signed_xpm[] = {
"24 24 151 2",
"  	c None",
". 	c #393939",
"+ 	c #404040",
"@ 	c #464646",
"# 	c #454545",
"$ 	c #444444",
"% 	c #4D4D4D",
"& 	c #4F4F4F",
"* 	c #333333",
"= 	c #0E0E0E",
"- 	c #000000",
"; 	c #040404",
"> 	c #050505",
", 	c #060606",
"' 	c #070707",
") 	c #151515",
"! 	c #222222",
"~ 	c #3F3F3F",
"{ 	c #FFFFFF",
"] 	c #525252",
"^ 	c #080808",
"/ 	c #020202",
"( 	c #010101",
"_ 	c #0F0F0F",
": 	c #252525",
"< 	c #343434",
"[ 	c #B8B8B8",
"} 	c #161616",
"| 	c #F7F7F7",
"1 	c #777777",
"2 	c #0C0C0C",
"3 	c #191919",
"4 	c #363636",
"5 	c #FBFBFB",
"6 	c #FDFDFD",
"7 	c #FCFCFC",
"8 	c #C7C7C7",
"9 	c #0A0A0A",
"0 	c #2A2A2A",
"a 	c #414141",
"b 	c #FEFEFE",
"c 	c #DFDFDF",
"d 	c #989898",
"e 	c #676767",
"f 	c #0B0B0B",
"g 	c #131313",
"h 	c #434343",
"i 	c #E1E1E1",
"j 	c #8D8D8D",
"k 	c #7A7A7A",
"l 	c #B1B1B1",
"m 	c #ACACAC",
"n 	c #595959",
"o 	c #141414",
"p 	c #1E1E1E",
"q 	c #5D5D5D",
"r 	c #696969",
"s 	c #4A4A4A",
"t 	c #E6E6E6",
"u 	c #939393",
"v 	c #6D6D6D",
"w 	c #A4A4A4",
"x 	c #F9F9F9",
"y 	c #C1C1C1",
"z 	c #575757",
"A 	c #1B1B1B",
"B 	c #ECECEC",
"C 	c #999999",
"D 	c #6E6E6E",
"E 	c #F0F0F0",
"F 	c #9A9A9A",
"G 	c #3A3A3A",
"H 	c #3D3D3D",
"I 	c #8A8A8A",
"J 	c #EDEDED",
"K 	c #B0B0B0",
"L 	c #717171",
"M 	c #F2F2F2",
"N 	c #EAEAEA",
"O 	c #9D9D9D",
"P 	c #787878",
"Q 	c #AAAAAA",
"R 	c #F1F1F1",
"S 	c #818181",
"T 	c #909090",
"U 	c #DBDBDB",
"V 	c #EFEFEF",
"W 	c #B9B9B9",
"X 	c #757575",
"Y 	c #A6A6A6",
"Z 	c #FAFAFA",
"` 	c #9C9C9C",
" .	c #C5C5C5",
"..	c #A9A9A9",
"+.	c #C2C2C2",
"@.	c #EBEBEB",
"#.	c #8F8F8F",
"$.	c #888888",
"%.	c #BEBEBE",
"&.	c #9B9B9B",
"*.	c #636363",
"=.	c #ADADAD",
"-.	c #B7B7B7",
";.	c #767676",
">.	c #CDCDCD",
",.	c #969696",
"'.	c #838383",
").	c #606060",
"!.	c #7C7C7C",
"~.	c #CACACA",
"{.	c #B4B4B4",
"].	c #D7D7D7",
"^.	c #A1A1A1",
"/.	c #858585",
"(.	c #5F5F5F",
"_.	c #646464",
":.	c #A3A3A3",
"<.	c #707070",
"[.	c #6C6C6C",
"}.	c #E8E8E8",
"|.	c #737373",
"1.	c #4E4E4E",
"2.	c #6A6A6A",
"3.	c #7F7F7F",
"4.	c #C8C8C8",
"5.	c #F8F8F8",
"6.	c #474747",
"7.	c #D8D8D8",
"8.	c #565656",
"9.	c #1C1C1C",
"0.	c #282828",
"a.	c #494949",
"b.	c #656565",
"c.	c #E0E0E0",
"d.	c #DCDCDC",
"e.	c #5B5B5B",
"f.	c #585858",
"g.	c #949494",
"h.	c #CECECE",
"i.	c #A7A7A7",
"j.	c #5E5E5E",
"k.	c #6F6F6F",
"l.	c #C6C6C6",
"m.	c #D2D2D2",
"n.	c #3B3B3B",
"o.	c #1F1F1F",
"p.	c #2B2B2B",
"q.	c #484848",
"r.	c #3C3C3C",
"s.	c #3E3E3E",
"t.	c #2D2D2D",
"                                                ",
"  . + @ @ # # # # $ $ % & * = - ; > , ; ' ) !   ",
"  ~ { { { { { { { { { { { ] ^ - / ( ( / _ : <   ",
"  # { { { { { { { { { { [ # - - - - - - } < $   ",
"  # { { { { { { { { { | 1 2 - - - - - ( 3 4 @   ",
"  $ { { { 5 6 7 { { { 8 # - - - - - - - 9 0 a   ",
"  $ { { { 6 { b { { c d e 4 f - - - - - g < h   ",
"  h { { { 7 { { { i j k l m n o - - - p q r s   ",
"  $ { { { { { { t u v w x { y z 9 - A k 8 { &   ",
"  h { { { { { B C D w E { { b F G H I J { { s   ",
"  h { { { { x K L d M { { { N O P Q R { { { #   ",
"  $ { { { { 8 S T U 6 V { { W X Y b { { { { $   ",
"  # { { { Z ` k  .i ..K Z x T r +.{ { { { { #   ",
"  # { { { @.#.$.%.&.*.=.E -.;.C @.{ { { { { #   ",
"  # { { { >.,.#.'.).!.~.{.e !.].{ { { { { { #   ",
"  # { { x ^./.!.(._.` :.<.[.[ { { { 7 { { { #   ",
"  # { { }.|.1.] z 2.3.X $.4.5.{ { { 6 { { { #   ",
"  6.{ { 7.8.9.0.a.b.'...c.{ { { b { 6 { { { #   ",
"  6.{ { d.e.= A f.g.h.5 { { { 6 7 6 5 { { { #   ",
"  s { { { i.j.k.%.7 { { { { { { { { { { { { 6.  ",
"  6.{ { { t l.m.{ { { { { { { { { { { { { { @   ",
"  < { { { { { { { { { { { { { { { { { { { { n.  ",
"  o.p.4 G + q.@ H . G n.n.r.s.~ ~ + + h $ G t.  ",
"                                                "};
