/* XPM */
static char * mark_locked_xpm[] = {
"24 24 72 1",
" 	c None",
".	c #000000",
"+	c #535353",
"@	c #FFFFFF",
"#	c #FEFEFE",
"$	c #F6F6F6",
"%	c #F5F5F5",
"&	c #F4F4F4",
"*	c #E3E3E3",
"=	c #EEEEEE",
"-	c #4F4F4F",
";	c #F3F3F3",
">	c #EDEDED",
",	c #AEAEAE",
"'	c #E4E4E4",
")	c #434343",
"!	c #FDFDFD",
"~	c #F2F2F2",
"{	c #ACACAC",
"]	c #C8C8C8",
"^	c #FBFBFB",
"/	c #F1F1F1",
"(	c #F0F0F0",
"_	c #EFEFEF",
":	c #A0A0A0",
"<	c #D4D4D4",
"[	c #F8F8F8",
"}	c #ECECEC",
"|	c #959595",
"1	c #3E3E3E",
"2	c #4D4D4D",
"3	c #818181",
"4	c #C6C6C6",
"5	c #6A6A6A",
"6	c #F3EFE0",
"7	c #F4E5B3",
"8	c #CDB86D",
"9	c #636363",
"0	c #B9B9B9",
"a	c #F4F0E4",
"b	c #F2E1A5",
"c	c #EED680",
"d	c #737373",
"e	c #7C7C7C",
"f	c #F9F9F9",
"g	c #E5EAF1",
"h	c #DCE3EB",
"i	c #DAE1E8",
"j	c #D7DEE6",
"k	c #D1D9E1",
"l	c #8F99A2",
"m	c #BCBCBC",
"n	c #E3EAF1",
"o	c #B7C8DA",
"p	c #8CA7C3",
"q	c #87A2BE",
"r	c #829DBA",
"s	c #7D98B6",
"t	c #465766",
"u	c #E7EDF3",
"v	c #B6C7D9",
"w	c #8AA5C1",
"x	c #85A0BC",
"y	c #809BB8",
"z	c #7B96B4",
"A	c #445462",
"B	c #ECF1F5",
"C	c #AEC0D4",
"D	c #88A3BF",
"E	c #839EBB",
"F	c #7E99B6",
"G	c #7994B2",
"                        ",
"                        ",
"                        ",
"                        ",
"                        ",
"                        ",
"                        ",
"   .................    ",
"  .+@@@@#@#@#@#$%&*+.   ",
"  .=-@%&;&;&;&;=>*-,.   ",
"  .@')!;~;~;~;~>*-{].   ",
"  .@%'-^/((_=>>*):<].   ",
"  .@^%')[(_=>}*-|<'].   ",
"  .@%%%'1%=>}*234....   ",
"  .@^%%'5);}*-54.678.   ",
"  .@%%'9@0-(-|4.a..]8.  ",
"  .@^'9@%'<-{4'.b.'.c.  ",
"  .@'d@%%%%''%..8...8.. ",
"  .@e@''''''''.fghijkl. ",
"  .dmmmmmmmmmm.nopqrst. ",
"   ............uvwxyzA. ",
"              .BCDEFGA. ",
"              ......... ",
"                        "};
