/* XPM */
static char * mark_unlocked_xpm[] = {
"24 24 66 1",
" 	c None",
".	c #000000",
"+	c #535353",
"@	c #FFFFFF",
"#	c #FEFEFE",
"$	c #F6F6F6",
"%	c #F5F5F5",
"&	c #F4F4F4",
"*	c #E3E3E3",
"=	c #EEEEEE",
"-	c #4F4F4F",
";	c #F3F3F3",
">	c #EDEDED",
",	c #AEAEAE",
"'	c #E4E4E4",
")	c #434343",
"!	c #FDFDFD",
"~	c #F2F2F2",
"{	c #ACACAC",
"]	c #C8C8C8",
"^	c #FBFBFB",
"/	c #F1F1F1",
"(	c #F0F0F0",
"_	c #EFEFEF",
":	c #A0A0A0",
"<	c #D4D4D4",
"[	c #F8F8F8",
"}	c #959595",
"|	c #3E3E3E",
"1	c #F4E5B3",
"2	c #EED680",
"3	c #CDB86D",
"4	c #6A6A6A",
"5	c #636363",
"6	c #B9B9B9",
"7	c #C6C6C6",
"8	c #737373",
"9	c #7C7C7C",
"0	c #F9F9F9",
"a	c #E5EAF1",
"b	c #DCE3EB",
"c	c #DAE1E8",
"d	c #D7DEE6",
"e	c #D1D9E1",
"f	c #8F99A2",
"g	c #BCBCBC",
"h	c #E3EAF1",
"i	c #B7C8DA",
"j	c #8CA7C3",
"k	c #87A2BE",
"l	c #829DBA",
"m	c #7D98B6",
"n	c #465766",
"o	c #E7EDF3",
"p	c #B6C7D9",
"q	c #8AA5C1",
"r	c #85A0BC",
"s	c #809BB8",
"t	c #7B96B4",
"u	c #445462",
"v	c #ECF1F5",
"w	c #AEC0D4",
"x	c #88A3BF",
"y	c #839EBB",
"z	c #7E99B6",
"A	c #7994B2",
"                        ",
"                        ",
"                        ",
"                        ",
"                        ",
"                        ",
"                        ",
"   .................    ",
"  .+@@@@#@#@#@#$%&*+.   ",
"  .=-@%&;&;&;&;=>*-,.   ",
"  .@')!;~;~;~;~>*-{].   ",
"  .@%'-^/((_=>>*):<].   ",
"  .@^%')[(_='...}<'].   ",
"  .@%%%'|%='.123.}'].   ",
"  .@^%%'4);.1...3.'].   ",
"  .@%%'5@6-.2.7.2.'].   ",
"  .@^'5@%'<.3.7.2.'].   ",
"  .@'8@%%%%'77..3...... ",
"  .@9@''''''''.0abcdef. ",
"  .8gggggggggg.hijklmn. ",
"   ............opqrstu. ",
"              .vwxyzAu. ",
"              ......... ",
"                        "};
