/* XPM */
static char * mark_unmark_xpm[] = {
"24 24 48 1",
" 	c None",
".	c #000000",
"+	c #535353",
"@	c #FFFFFF",
"#	c #FEFEFE",
"$	c #F6F6F6",
"%	c #F5F5F5",
"&	c #F4F4F4",
"*	c #E3E3E3",
"=	c #EEEEEE",
"-	c #4F4F4F",
";	c #F3F3F3",
">	c #EDEDED",
",	c #AEAEAE",
"'	c #E4E4E4",
")	c #434343",
"!	c #FDFDFD",
"~	c #F2F2F2",
"{	c #ACACAC",
"]	c #C8C8C8",
"^	c #FBFBFB",
"/	c #F1F1F1",
"(	c #F0F0F0",
"_	c #EFEFEF",
":	c #A0A0A0",
"<	c #D4D4D4",
"[	c #F8F8F8",
"}	c #ECECEC",
"|	c #959595",
"1	c #3E3E3E",
"2	c #4D4D4D",
"3	c #818181",
"4	c #C6C6C6",
"5	c #6A6A6A",
"6	c #636363",
"7	c #B9B9B9",
"8	c #737373",
"9	c #7C7C7C",
"0	c #EC8E79",
"a	c #DF421E",
"b	c #FCF1EF",
"c	c #FDFBFA",
"d	c #FDF6F4",
"e	c #F9DFDA",
"f	c #BCBCBC",
"g	c #FBECE9",
"h	c #FBEAE7",
"i	c #FDF9F8",
"                        ",
"                        ",
"                        ",
"                        ",
"                        ",
"                        ",
"                        ",
"   .................    ",
"  .+@@@@#@#@#@#$%&*+.   ",
"  .=-@%&;&;&;&;=>*-,.   ",
"  .@')!;~;~;~;~>*-{].   ",
"  .@%'-^/((_=>>*):<].   ",
"  .@^%')[(_=>}*-|<'].   ",
"  .@%%%'1%=>}*234''].@@ ",
"  .@^%%'5);}*-544%']@.@ ",
"  .@%%'6@7-(-|484%'@..@ ",
"  .@^'6@%'<-{@@'9'@...@ ",
"  .@'8@%%%%''@.@'0aaaaa ",
"  .@9@'''''''@..@abcadea",
"  .8fffffffff@...ac@g@da",
"   ...........@..aab@gaa",
"               @.ad@h@ia",
"                @abiadea",
"                  aaaaa "};
