/* XPM */
static char * mark_watchthread_xpm[] = {
"24 24 63 1",
" 	c None",
".	c #000000",
"+	c #535353",
"@	c #FFFFFF",
"#	c #FEFEFE",
"$	c #F6F6F6",
"%	c #F5F5F5",
"&	c #F4F4F4",
"*	c #E3E3E3",
"=	c #EEEEEE",
"-	c #4F4F4F",
";	c #F3F3F3",
">	c #EDEDED",
",	c #AEAEAE",
"'	c #E4E4E4",
")	c #434343",
"!	c #FDFDFD",
"~	c #F2F2F2",
"{	c #ACACAC",
"]	c #C8C8C8",
"^	c #FBFBFB",
"/	c #F1F1F1",
"(	c #F0F0F0",
"_	c #EFEFEF",
":	c #A0A0A0",
"<	c #D4D4D4",
"[	c #F8F8F8",
"}	c #ECECEC",
"|	c #959595",
"1	c #3E3E3E",
"2	c #4D4D4D",
"3	c #818181",
"4	c #C6C6C6",
"5	c #6A6A6A",
"6	c #636363",
"7	c #B9B9B9",
"8	c #737373",
"9	c #1B2B3C",
"0	c #B6B6B6",
"a	c #264057",
"b	c #233B51",
"c	c #253F56",
"d	c #374E63",
"e	c #606B76",
"f	c #2B2B2B",
"g	c #7C7C7C",
"h	c #CACACA",
"i	c #334F68",
"j	c #E7E7E7",
"k	c #314E6C",
"l	c #597187",
"m	c #262626",
"n	c #BCBCBC",
"o	c #DFDFDF",
"p	c #3B5673",
"q	c #506881",
"r	c #E1E1E1",
"s	c #8091A3",
"t	c #3A5572",
"u	c #EBEBEB",
"v	c #7D8EA0",
"w	c #303030",
"x	c #1F262D",
"                        ",
"                        ",
"                        ",
"                        ",
"                        ",
"                        ",
"                        ",
"   .................    ",
"  .+@@@@#@#@#@#$%&*+.   ",
"  .=-@%&;&;&;&;=>*-,.   ",
"  .@')!;~;~;~;~>*-{].   ",
"  .@%'-^/((_=>>*):<].   ",
"  .@^%')[(_=>}*-|<'].   ",
"  .@%%%'1%=>}*234''].   ",
"  .@^%%'5);}*-544%'].   ",
"  .@%%'6@7-(-|484%'].   ",
"  .@^'6@%'<-{49......   ",
"  .@'8@%%%%''90abcdef   ",
"  .@g@''''''.hij@.kl0m  ",
"  .8nnnnnnn.o%p@@.kqr:. ",
"   ..........(skkktto.  ",
"             .uvttvu.   ",
"              w..x..    ",
"                        "};
