/* XPM */
static char * mark_ignorethread_xpm[] = {
"24 24 68 1",
" 	c None",
".	c #000000",
"+	c #535353",
"@	c #FFFFFF",
"#	c #FEFEFE",
"$	c #F6F6F6",
"%	c #F5F5F5",
"&	c #F4F4F4",
"*	c #E3E3E3",
"=	c #EEEEEE",
"-	c #4F4F4F",
";	c #F3F3F3",
">	c #EDEDED",
",	c #AEAEAE",
"'	c #E4E4E4",
")	c #434343",
"!	c #FDFDFD",
"~	c #F2F2F2",
"{	c #ACACAC",
"]	c #C8C8C8",
"^	c #FBFBFB",
"/	c #F1F1F1",
"(	c #F0F0F0",
"_	c #EFEFEF",
":	c #A0A0A0",
"<	c #D4D4D4",
"[	c #F8F8F8",
"}	c #ECECEC",
"|	c #959595",
"1	c #3E3E3E",
"2	c #1B2B3C",
"3	c #6A6A6A",
"4	c #B6B6B6",
"5	c #264057",
"6	c #233B51",
"7	c #253F56",
"8	c #374E63",
"9	c #606B76",
"0	c #2B2B2B",
"a	c #636363",
"b	c #B9B9B9",
"c	c #CACACA",
"d	c #334F68",
"e	c #E7E7E7",
"f	c #314E6C",
"g	c #597187",
"h	c #262626",
"i	c #DFDFDF",
"j	c #3B5673",
"k	c #506881",
"l	c #E1E1E1",
"m	c #737373",
"n	c #8091A3",
"o	c #DF421E",
"p	c #7C7C7C",
"q	c #EBEBEB",
"r	c #7D8EA0",
"s	c #3A5572",
"t	c #FCF1EF",
"u	c #FDFBFA",
"v	c #FDF6F4",
"w	c #F9DFDA",
"x	c #BCBCBC",
"y	c #303030",
"z	c #1F262D",
"A	c #FBECE9",
"B	c #FBEAE7",
"C	c #FDF9F8",
"                        ",
"                        ",
"                        ",
"                        ",
"                        ",
"                        ",
"                        ",
"   .................    ",
"  .+@@@@#@#@#@#$%&*+.   ",
"  .=-@%&;&;&;&;=>*-,.   ",
"  .@')!;~;~;~;~>*-{].   ",
"  .@%'-^/((_=>>*):<].   ",
"  .@^%')[(_=>}*-|<'].   ",
"  .@%%%'1%=>}2.....].   ",
"  .@^%%'3);}24567890.   ",
"  .@%%'a@b-.cde@.fg4h   ",
"  .@^'a@%'.i%j@@.fkl:.  ",
"  .@'m@%%%%.(nfff ooooo ",
"  .@p@''''''.qrssotuovwo",
"  .mxxxxxxxxxy..zou@A@vo",
"   ..............oot@Aoo",
"                 ov@B@Co",
"                 otCovwo",
"                  ooooo "};
