/* XPM */
static char * mark_allread_xpm[] = {
"24 24 59 1",
" 	c None",
".	c #000000",
"+	c #535353",
"@	c #FFFFFF",
"#	c #FEFEFE",
"$	c #F4F4F4",
"%	c #E3E3E3",
"&	c #EEEEEE",
"*	c #4F4F4F",
"=	c #F5F5F5",
"-	c #F3F3F3",
";	c #F2F2F2",
">	c #F1F1F1",
",	c #EDEDED",
"'	c #AEAEAE",
")	c #E4E4E4",
"!	c #434343",
"~	c #FDFDFD",
"{	c #F0F0F0",
"]	c #ACACAC",
"^	c #C8C8C8",
"/	c #FBFBFB",
"(	c #EFEFEF",
"_	c #A0A0A0",
":	c #D4D4D4",
"<	c #D3D3D3",
"[	c #525252",
"}	c #F8F8F8",
"|	c #ECECEC",
"1	c #959595",
"2	c #BABABA",
"3	c #494949",
"4	c #3E3E3E",
"5	c #4D4D4D",
"6	c #818181",
"7	c #C6C6C6",
"8	c #414141",
"9	c #6A6A6A",
"0	c #838383",
"a	c #C5C5C5",
"b	c #636363",
"c	c #B9B9B9",
"d	c #737373",
"e	c #7C7C7C",
"f	c #BBBBBB",
"g	c #C9C9C9",
"h	c #BCBCBC",
"i	c #6B6B6B",
"j	c #686868",
"k	c #D6D6D6",
"l	c #D2D2D2",
"m	c #666666",
"n	c #C0C0C0",
"o	c #CDCDCD",
"p	c #787878",
"q	c #C7C7C7",
"r	c #AFAFAF",
"s	c #B1B1B1",
"t	c #B6B6B6",
"                        ",
"                        ",
"                        ",
"                        ",
"                        ",
"                        ",
" .................      ",
".+@@@@#########$%+.     ",
".&*@=$-;;>>>>>,%*'.     ",
".@)!~-;;>{>>>>%*]^....  ",
".@=)*/>{{(&>>%!_:^.^<[. ",
".@/=)!}{(&,|%*1:)^.23]. ",
".@===)4=&,|%567))^.8_7. ",
".@/==)9!-|%*977=)^.0a7. ",
".@==)b@c*{*17d7=)^.':7. ",
".@/)b@=):*]7))e))^.f:7. ",
".@)d@====))===)e)^.g:7. ",
".@e@))))))))))))e^.g:7. ",
".dhhhhhhhhhhhhhhhb.f:7. ",
" .................ijk7. ",
"    .lmlffffffffffnopq. ",
"    .irrrrrrrrrrrrst2b. ",
"     .................  ",
"                        "};
