/* XPM */
static char * mark_xpm[] = {
"12 12 3 1",
" 	c None",
".	c #FFFFFF",
"+	c #000000",
"            ",
"         .. ",
"        .+. ",
"       .++. ",
" ..   .+++. ",
" .+. .+++.  ",
" .++.+++.   ",
" .+++++.    ",
"  .+++.     ",
"   .+.      ",
"    .       ",
"            "};
