/* XPM */
static char * mark_unread_xpm[] = {
"24 24 7 1",
" 	c None",
".	c #000000",
"+	c #030057",
"@	c #DDDCF2",
"#	c #CAC8EB",
"$	c #B0AEE1",
"%	c #26219A",
"                        ",
"                        ",
"                        ",
"                        ",
"                        ",
"                        ",
"                        ",
"   .................    ",
"  .+@@@@@@@@@@@###@+.   ",
"  .#+@######$#$$$@+%.   ",
"  .@#+@#$$$$$$$$@+%$.   ",
"  .@$#+@#$$$$$$@+%#$.   ",
"  .@$$#+@$$$$$@+%$#$.   ",
"  .@$$$$+@$$$@+%$$#$.   ",
"  .@$$$$%+@$@+%$$$$$.   ",
"  .@$$$%@#+@+%#%$$$$.   ",
"  .@$$%@$$#+%$$#%$$$.   ",
"  .@$%@$$$$$$$$$#%$$.   ",
"  .#%@$$$$$$$$$$$#%$.   ",
"  .%#$$$$$$$$$$$$$$%.   ",
"   .................    ",
"                        ",
"                        ",
"                        "};
