/* XPM */
static char * news_compose_xpm[] = {
"24 24 166 2",
"  	c None",
". 	c #000000",
"+ 	c #BAA88F",
"@ 	c #836B4E",
"# 	c #C5A985",
"$ 	c #DC9E55",
"% 	c #9E6233",
"& 	c #C3A783",
"* 	c #DD9D53",
"= 	c #A76631",
"- 	c #C5AA88",
"; 	c #A86631",
"> 	c #C3A47A",
", 	c #DD9D52",
"' 	c #A66430",
") 	c #404040",
"! 	c #C2A174",
"~ 	c #DC9B4E",
"{ 	c #A96630",
"] 	c #4D4D4D",
"^ 	c #A1A1A1",
"/ 	c #F5F5F5",
"( 	c #F9F9F9",
"_ 	c #F7F7F7",
": 	c #F8F8F8",
"< 	c #BEA686",
"[ 	c #DD9D51",
"} 	c #AA682F",
"| 	c #B3B3B3",
"1 	c #4F4F4F",
"2 	c #494949",
"3 	c #DBDBDB",
"4 	c #525252",
"5 	c #838383",
"6 	c #484848",
"7 	c #6F6F6F",
"8 	c #626262",
"9 	c #8D8D8D",
"0 	c #606060",
"a 	c #B2B2B2",
"b 	c #BCAC9B",
"c 	c #A86E3F",
"d 	c #9D9D9D",
"e 	c #D3D3D3",
"f 	c #535353",
"g 	c #565656",
"h 	c #7C7C7C",
"i 	c #EBEBEB",
"j 	c #6E6E6E",
"k 	c #474747",
"l 	c #8A8A8A",
"m 	c #3F3F3F",
"n 	c #4E4E4E",
"o 	c #808080",
"p 	c #C0C0C0",
"q 	c #8C8C8C",
"r 	c #D6D6D6",
"s 	c #7E7E7E",
"t 	c #343434",
"u 	c #969696",
"v 	c #818181",
"w 	c #CDCDCD",
"x 	c #989898",
"y 	c #747474",
"z 	c #D0D0D0",
"A 	c #9E9E9E",
"B 	c #959595",
"C 	c #E2E2E2",
"D 	c #DFDFDF",
"E 	c #9B9B9B",
"F 	c #E0E0E0",
"G 	c #B1B1B1",
"H 	c #434343",
"I 	c #3C3C3C",
"J 	c #C6C6C6",
"K 	c #EAEAEA",
"L 	c #F2F2F2",
"M 	c #ECECEC",
"N 	c #E7E7E7",
"O 	c #F4F4F4",
"P 	c #F3F3F3",
"Q 	c #EFEFEF",
"R 	c #EEEEEE",
"S 	c #F6F6F6",
"T 	c #AFAFAF",
"U 	c #7A7A7A",
"V 	c #696969",
"W 	c #6D6D6D",
"X 	c #6B6B6B",
"Y 	c #656565",
"Z 	c #6C6C6C",
"` 	c #757575",
" .	c #A8A8A8",
"..	c #EDEDED",
"+.	c #8B8B8B",
"@.	c #848484",
"#.	c #898989",
"$.	c #858585",
"%.	c #A3A3A3",
"&.	c #DDDDDD",
"*.	c #5F5F5F",
"=.	c #616161",
"-.	c #878787",
";.	c #979797",
">.	c #A9A9A9",
",.	c #ACACAC",
"'.	c #DADADA",
").	c #CCCCCC",
"!.	c #C9C9C9",
"~.	c #CBCBCB",
"{.	c #CACACA",
"].	c #D9D9D9",
"^.	c #929292",
"/.	c #727272",
"(.	c #C1C1C1",
"_.	c #A0A0A0",
":.	c #9C9C9C",
"<.	c #5A5A5A",
"[.	c #D4D4D4",
"}.	c #8F8F8F",
"|.	c #464646",
"1.	c #A4A4A4",
"2.	c #AAAAAA",
"3.	c #7B7B7B",
"4.	c #888888",
"5.	c #7D7D7D",
"6.	c #5C5C5C",
"7.	c #D1D1D1",
"8.	c #E4E4E4",
"9.	c #424242",
"0.	c #393939",
"a.	c #B6B5B6",
"b.	c #515151",
"c.	c #737373",
"d.	c #707070",
"e.	c #676767",
"f.	c #636363",
"g.	c #4A4A4A",
"h.	c #A2A2A2",
"i.	c #828182",
"j.	c #686868",
"k.	c #979798",
"l.	c #454545",
"m.	c #6A6A6A",
"n.	c #505050",
"o.	c #D5D5D5",
"p.	c #C2C2C2",
"q.	c #B5B5B5",
"r.	c #BEBEBE",
"s.	c #444444",
"t.	c #CECECE",
"u.	c #3E3E3E",
"v.	c #4C4C4C",
"w.	c #4B4B4B",
"x.	c #7C7D7C",
"y.	c #BFC0BF",
"z.	c #989899",
"A.	c #949494",
"B.	c #8E8E8E",
"C.	c #B1B1B2",
"D.	c #A6A6A6",
"E.	c #A3A3A4",
"F.	c #A1A0A0",
"G.	c #B0B0B0",
"H.	c #303030",
"I.	c #3B3B3B",
"                                                ",
"                                          . .   ",
"                                        . + @ . ",
"                                      . # $ % . ",
"                                    . & * = .   ",
"                                  . - * ; .     ",
"                                . > , ' .       ",
"        ) . . . . . . . . . . . ! ~ { .         ",
"      ] ^ / ( / / _ _ : _ / . < [ } . | 1       ",
"      2 3 4 5 2 6 7 8 9 0 a . b c . d e f       ",
"    g h i 4 j k l l m n o . . . . p q r s 7     ",
"    t u _ v w x y z A B C . . D C E B F G H     ",
"    I J / K L L L M D N _ _ O P Q R S S 3 n     ",
"    1 D T U V W X Y Z `  ...+.v @.#.$.%.&.*.    ",
"  B =.D -.;.G T T >.T ,.W N '.).!.~.{.].Q W ^.  ",
"  /.l (./.v 9 _.d :.u B <.[.#.v }.(.B B K x W   ",
"  |.1.2.=.3.@.@.4.@.5.#.6.[.].[.).{.e 7.8.w 9.  ",
"  0.a.Y b.c.d.j Z j e.f.g.3 /.J h.i.j.k.J K ]   ",
"  l.J g Z d.d.j.X m.8 =.n.o.p.(.p.q.G r.{.K s.  ",
"  l.t.c.] s.u.l.6 v.g.w.x.y.5.` c.v v #.T ).6   ",
"  l.4.^ z.A.u B.q 9 ^.}.h.C.D.E.F.E.G.a G.@.m   ",
"    H.. . . . . . . . . . . . . . . . . . I.    ",
"                                                ",
"                                                "};
