/* XPM */
static char * open_mail_xpm[] = {
"24 24 27 1",
" 	c None",
".	c #4F4F4F",
"+	c #434343",
"@	c #F3F3F3",
"#	c #ECECEC",
"$	c #E3E3E3",
"%	c #000000",
"&	c #484496",
"*	c #6A6A6A",
"=	c #BFBFBF",
"-	c #FFFFFF",
";	c #EEEEEE",
">	c #AEAEAE",
",	c #E4E4E4",
"'	c #ACACAC",
")	c #C8C8C8",
"!	c #F5F5F5",
"~	c #A0A0A0",
"{	c #D4D4D4",
"]	c #FBFBFB",
"^	c #959595",
"/	c #818181",
"(	c #C6C6C6",
"_	c #636363",
":	c #737373",
"<	c #7C7C7C",
"[	c #BCBCBC",
"                        ",
"          ...           ",
"         +@#$.          ",
"     %%%%%%%%%%%%%      ",
"    %&&&&&&&&&&&&&%     ",
"    %*************%     ",
"    %=============%     ",
"    %=============%     ",
"    %-------------%     ",
"   %%-**-*****-*--%%    ",
"  %*%-------------%*%   ",
"  %;*-*-*****-**--*>%   ",
"  %-,*-----------*')%   ",
"  %-!,***-*******~{)%   ",
"  %-]!,*-------*^{,)%   ",
"  %-!!!,****-**/(,,)%   ",
"  %-]!!,*******((!,)%   ",
"  %-!!,_!!!!!!!:(!,)%   ",
"  %-],_-!!!!!!!,<,,)%   ",
"  %-,:-!!!!,,!!!,<,)%   ",
"  %-<-,,,,,,,,,,,,<)%   ",
"  %:[[[[[[[[[[[[[[[_%   ",
"   %%%%%%%%%%%%%%%%%    ",
"                        "};
