/* XPM */
static char * paste_xpm[] = {
"24 24 105 2",
"  	c None",
". 	c #141414",
"+ 	c #191919",
"@ 	c #101010",
"# 	c #0D0D0D",
"$ 	c #000000",
"% 	c #B9B9B9",
"& 	c #FEFEFE",
"* 	c #F9F9F9",
"= 	c #757575",
"- 	c #F5F5E8",
"; 	c #565651",
"> 	c #FFFFFF",
", 	c #A0A0A0",
"' 	c #939393",
") 	c #7C7C7C",
"! 	c #C5C5BB",
"~ 	c #CFC6A0",
"{ 	c #D7CEAA",
"] 	c #ADA689",
"^ 	c #4B483C",
"/ 	c #6D6D6D",
"( 	c #6C6C6C",
"_ 	c #A9A9A9",
": 	c #3D3A30",
"< 	c #979178",
"[ 	c #C1B898",
"} 	c #8A793D",
"| 	c #C3BB9A",
"1 	c #AFA78A",
"2 	c #444236",
"3 	c #FAFAFA",
"4 	c #EFEFEF",
"5 	c #C7C7C7",
"6 	c #D8D8D8",
"7 	c #D2D2D2",
"8 	c #7B7B7B",
"9 	c #302E26",
"0 	c #89846C",
"a 	c #C4BC9A",
"b 	c #847235",
"c 	c #C5C5C5",
"d 	c #A7A7A7",
"e 	c #ADADAD",
"f 	c #9A9A9A",
"g 	c #9B9B9B",
"h 	c #868686",
"i 	c #424242",
"j 	c #847033",
"k 	c #C9C09E",
"l 	c #464337",
"m 	c #35332A",
"n 	c #2D2B23",
"o 	c #C6BE9D",
"p 	c #826F33",
"q 	c #7F7964",
"r 	c #4C493C",
"s 	c #171612",
"t 	c #13120F",
"u 	c #3E3B31",
"v 	c #282210",
"w 	c #404040",
"x 	c #363636",
"y 	c #252525",
"z 	c #474438",
"A 	c #B3B3B3",
"B 	c #D6D6D6",
"C 	c #1B1B1B",
"D 	c #B7AE90",
"E 	c #B1AA8C",
"F 	c #37352B",
"G 	c #151410",
"H 	c #8F8F8F",
"I 	c #989898",
"J 	c #C6C6C6",
"K 	c #020202",
"L 	c #B9B293",
"M 	c #11100D",
"N 	c #434035",
"O 	c #636363",
"P 	c #767676",
"Q 	c #131313",
"R 	c #AAA48B",
"S 	c #A5A086",
"T 	c #A19A7F",
"U 	c #312F26",
"V 	c #121212",
"W 	c #AFA88C",
"X 	c #050403",
"Y 	c #12110E",
"Z 	c #030303",
"` 	c #A9A489",
" .	c #A39E85",
"..	c #EBE7D0",
"+.	c #D2C9A5",
"@.	c #A29053",
"#.	c #8E7C3D",
"$.	c #88793B",
"%.	c #806C2F",
"&.	c #78652B",
"*.	c #251F0C",
"=.	c #222222",
"-.	c #3D3D3D",
";.	c #0B0B0B",
">.	c #060606",
"              . + @ #                           ",
"  $ $ $ $ $ $ % & * = $ $ $ $ $ $               ",
"$ - - - - - ; > , ' ) ; ! - - - ~ $             ",
"$ - { { { ] ^ > / ( _ : < [ { { } $             ",
"$ - | | 1 2 3 4 5 6 7 8 9 0 1 a b $             ",
"$ - { { ^ c d d e f g h i ^ ] { j $             ",
"$ - k | 0 l m n n n n n 9 0 1 o p $             ",
"$ - { { { < < < < < < < < [ { { p $             ",
"$ - k | | | | q r s t t t t : u v $ w x y       ",
"$ - { { { { { z A > > > > > > > > > > > B C     ",
"$ - D E E E E F > > > > > > > > > > > > > .     ",
"$ - { { { { { G > d H H I > > J H > H J > K     ",
"$ - L E E E E M > > > > > > > > > > > > > K     ",
"$ - { { { { { N > / O > P H H J > J H > > Q     ",
"$ - R S T T T U > > > > > > > > > > > > > V     ",
"$ - { { { { { N > d H H > H H H J > I H > Q     ",
"$ - W S T T T X > > > > > > > > > > > > > $     ",
"$ - { { { { { Y > / O > P H H J > J H > > Z     ",
"$ - `  .T T T U > > > > > > > > > > > > > V     ",
"$ ..{ { { { { N > d H H > H H H J > I H > Q     ",
"$ +.@.#.$.%.&.*.> > > > > > > > > > > > > Q     ",
"  $ $ $ $ $ $ $ B > > > > > > > > > > > B =.    ",
"                -.Q V Q ;.>.=.=.=.=.=.=.y       ",
"                                                "};
