/* XPM */
static char * printer_xpm[] = {
"16 16 107 2",
"  	c None",
". 	c #AEAFAD",
"+ 	c #B1B2B0",
"@ 	c #ADAEAC",
"# 	c #C7C7C6",
"$ 	c #FEFEFE",
"% 	c #E9E9E9",
"& 	c #EAEAE9",
"* 	c #FFFFFF",
"= 	c #C6C7C6",
"- 	c #CACAC9",
"; 	c #F0F0F0",
"> 	c #D1D1D1",
", 	c #D5D5D5",
"' 	c #D7D7D7",
") 	c #F7F7F7",
"! 	c #C9C9C8",
"~ 	c #C9CAC9",
"{ 	c #F3F3F3",
"] 	c #D9D9D9",
"^ 	c #FBFAFB",
"/ 	c #C8C9C8",
"( 	c #C9CAC8",
"_ 	c #F5F5F5",
": 	c #D4D4D4",
"< 	c #D8D8D8",
"[ 	c #EDEDED",
"} 	c #EEEEEE",
"| 	c #FDFCFD",
"1 	c #91928F",
"2 	c #CDCECD",
"3 	c #F2F2F2",
"4 	c #F8F8F8",
"5 	c #CACBC9",
"6 	c #757673",
"7 	c #989997",
"8 	c #FEFEFD",
"9 	c #A8A8A6",
"0 	c #8F8E8D",
"a 	c #8D8D8B",
"b 	c #8E8E8C",
"c 	c #8C8C8A",
"d 	c #949492",
"e 	c #AEADAA",
"f 	c #CFCFCD",
"g 	c #8E8F8C",
"h 	c #7A7B78",
"i 	c #FAFAFA",
"j 	c #EAEAEA",
"k 	c #F1F1F1",
"l 	c #F1F1F0",
"m 	c #F8F8F7",
"n 	c #E5E5E5",
"o 	c #C8C8C7",
"p 	c #81827F",
"q 	c #B9B9B9",
"r 	c #CACACA",
"s 	c #E8E8E7",
"t 	c #F4F4F4",
"u 	c #F2F2F1",
"v 	c #F1F0F0",
"w 	c #FAF9F9",
"x 	c #C3C3C1",
"y 	c #969694",
"z 	c #828380",
"A 	c #7F807D",
"B 	c #BFBFBF",
"C 	c #858484",
"D 	c #757472",
"E 	c #797876",
"F 	c #787776",
"G 	c #767674",
"H 	c #6F6E6C",
"I 	c #6C6C69",
"J 	c #6D6C6A",
"K 	c #706F6D",
"L 	c #6D6D6B",
"M 	c #A3A3A2",
"N 	c #7B7C79",
"O 	c #BEBEBE",
"P 	c #B9B9B7",
"Q 	c #ACACAA",
"R 	c #A9A8A7",
"S 	c #A7A7A6",
"T 	c #A5A5A3",
"U 	c #9E9E9D",
"V 	c #9B9A99",
"W 	c #9A9A98",
"X 	c #999997",
"Y 	c #A9A8A8",
"Z 	c #7D7E7B",
"` 	c #ADADAC",
" .	c #949593",
"..	c #989897",
"+.	c #979895",
"@.	c #969693",
"#.	c #9E9F9E",
"$.	c #919290",
"%.	c #959694",
"&.	c #989896",
"*.	c #979896",
"=.	c #979795",
"-.	c #969795",
";.	c #959693",
">.	c #969794",
",.	c #939492",
"'.	c #7D7E7C",
"                                ",
"        . . + + + + @ .         ",
"        # $ % % & % * =         ",
"        - ; > , ' ' ) !         ",
"        ~ { , ] ' ' ^ /         ",
"        ( _ : < [ } | /         ",
"      1 2 * 3 _ 4 4 * 5 6       ",
"    7 8 9 0 a a b c d e f g     ",
"  h 3 ; i j { { k l ; m n o h   ",
"  p q r > s _ t t u v w x y z   ",
"  A B C D E F G H I J K L M p   ",
"  N O P Q R S T U V W X y Y Z   ",
"    y `  .....+...7 +.@.#.$.    ",
"    p %.&.*.&.=.-.-.;.>.,.'.    ",
"                                ",
"                                "};
