/* XPM */
static char * privacy_failed_xpm[] = {
"24 24 57 1",
" 	c None",
".	c #4A4A4A",
"+	c #141413",
"@	c #2F2F2F",
"#	c #C45C57",
"$	c #C04940",
"%	c #A00703",
"&	c #A90F06",
"*	c #B01509",
"=	c #000000",
"-	c #B31B0B",
";	c #242424",
">	c #ECCECB",
",	c #ECECEC",
"'	c #E5E5E5",
")	c #CACACA",
"!	c #B81E0D",
"~	c #DFDFDF",
"{	c #666666",
"]	c #9C1B09",
"^	c #DBDBDB",
"/	c #BCBCBC",
"(	c #FFFFFF",
"_	c #BC210F",
":	c #D7D7D7",
"<	c #A81D0E",
"[	c #ACA9A7",
"}	c #BE392E",
"|	c #C59A64",
"1	c #C19257",
"2	c #473825",
"3	c #D2B084",
"4	c #CDA36D",
"5	c #BB8544",
"6	c #B37A37",
"7	c #995E1B",
"8	c #D1A773",
"9	c #BC8E53",
"0	c #846740",
"a	c #6B5334",
"b	c #EBD3BB",
"c	c #E2C19A",
"d	c #D3AB7B",
"e	c #21190E",
"f	c #0C0905",
"g	c #080604",
"h	c #19130B",
"i	c #78664D",
"j	c #BD8B4D",
"k	c #BA813E",
"l	c #A58152",
"m	c #2E2316",
"n	c #A08C72",
"o	c #A56E33",
"p	c #BA8749",
"q	c #B68241",
"r	c #88521A",
"                        ",
"     .++.               ",
"   .@####@.             ",
"  .$#%&&*$#+@===@       ",
"  @#%%&&*-$;>,'').=     ",
" .#%%%&&*-!-@===~){=    ",
" @#%',,,,,!]=   =^/.    ",
" @#&,(((((_]+    =:{.   ",
" .#<&***-!!].    ='[=   ",
"  @$**--!_<=     ='/=   ",
"  {}}-!!-]<=======|1==  ",
"   .+-]]]=234|||||1567= ",
"     .=+2|3890a|||1567= ",
"      =bc3d40ef23|1567= ",
"      =bcdd4a==g319567= ",
"      =bc3d40hgid1jk67= ",
"      =bcd84lm=3|1jk67= ",
"      =bcdd40h=n|1jk6o= ",
"      =bc84|2h=i39566o= ",
"      =bcd84a22a31jk66= ",
"      =bc84|3333|1j5j6= ",
"      =d819pqqq5pppp6r= ",
"       ===============  ",
"                        "};
