/* XPM */
static char * privacy_signed_xpm[] = {
"24 24 63 1",
" 	c None",
".	c #4E4E4E",
"+	c #303030",
"@	c #000000",
"#	c #ABA8A7",
"$	c #EBEBEB",
"%	c #E5E5E5",
"&	c #CFCFCF",
"*	c #BABABA",
"=	c #DDDDDD",
"-	c #868686",
";	c #6E6E6E",
">	c #D2A06E",
",	c #A7896A",
"'	c #C99560",
")	c #C48F5A",
"!	c #EFDABF",
"~	c #E5C7A0",
"{	c #D4B48A",
"]	c #D2AB7A",
"^	c #D1A874",
"/	c #CBA16B",
"(	c #C79C65",
"_	c #C3985F",
":	c #C19256",
"<	c #BB8544",
"[	c #B67C39",
"}	c #995E1B",
"|	c #D6AF7F",
"1	c #D0A671",
"2	c #B48D59",
"3	c #81643E",
"4	c #6B5334",
"5	c #BC9A6D",
"6	c #EED8BB",
"7	c #E3C39C",
"8	c #CEA46E",
"9	c #21190E",
"0	c #0C0905",
"a	c #493923",
"b	c #D1AF83",
"c	c #C39861",
"d	c #C19459",
"e	c #080604",
"f	c #BE8C4F",
"g	c #B37834",
"h	c #19130B",
"i	c #78664D",
"j	c #BA813E",
"k	c #E0C098",
"l	c #A58152",
"m	c #2E2316",
"n	c #CDAD82",
"o	c #876943",
"p	c #B17632",
"q	c #A36B2F",
"r	c #EED6B8",
"s	c #E1BD94",
"t	c #A9753B",
"u	c #BB894A",
"v	c #B68241",
"w	c #BA8649",
"x	c #88521A",
"                        ",
"                        ",
"                        ",
"           .+@@@+       ",
"          @#$$%%&.@     ",
"         @&$*@@@=&.@    ",
"        .#$-@   @=*.    ",
"        +$*@     @=;.   ",
"        @%-@     @%#@   ",
"        @=;@     @%*@   ",
"       @@>,@@@@@@@')@@  ",
"      @!~{]^/((((_:<[}@ ",
"      @!~|]12345(_:<[}@ ",
"      @67|]8390abcd<[}@ ",
"      @67|]84@@e{df<g}@ ",
"      @!7|]83hei]dfjg}@ ",
"      @6k]^/lm@nc:fjg}@ ",
"      @67|]8oh@,_:fjpq@ ",
"      @rs^8(ah@ibf<[pt@ ",
"      @6k]^/4aa4b:fj[t@ ",
"      @rk^8(n{{{(:u<ft@ ",
"      @|1:fuvvv<uwww[x@ ",
"       @@@@@@@@@@@@@@@  ",
"                        "};
