/* XPM */
static char * privacy_passed_xpm[] = {
"24 24 60 1",
" 	c None",
".	c #515151",
"+	c #161616",
"@	c #000000",
"#	c #696969",
"$	c #183317",
"%	c #599659",
"&	c #75AE74",
"*	c #386637",
"=	c #90BE90",
"-	c #519A4F",
";	c #419541",
">	c #5EA65D",
",	c #101010",
"'	c #263125",
")	c #62AB62",
"!	c #3F903F",
"~	c #469F44",
"{	c #439841",
"]	c #459A43",
"^	c #B6B6B6",
"/	c #EAEAEA",
"(	c #E0E0E0",
"_	c #CACACA",
":	c #639863",
"<	c #FFFFFF",
"[	c #3B893B",
"}	c #48A046",
"|	c #DBDBDB",
"1	c #469A45",
"2	c #49A447",
"3	c #D7D7D7",
"4	c #4BA649",
"5	c #C59A63",
"6	c #C19257",
"7	c #4E774E",
"8	c #4C3B27",
"9	c #BB8645",
"0	c #B37A37",
"a	c #995E1B",
"b	c #BC8E53",
"c	c #7F6441",
"d	c #6B5334",
"e	c #18130C",
"f	c #9E7D55",
"g	c #CDA36D",
"h	c #21190E",
"i	c #0C0905",
"j	c #D3B084",
"k	c #EED8BA",
"l	c #E1C199",
"m	c #D1A977",
"n	c #080604",
"o	c #826B4C",
"p	c #BC8A4C",
"q	c #B8823F",
"r	c #2E2316",
"s	c #A08C72",
"t	c #A56E33",
"u	c #88521A",
"                        ",
"     .+@+.              ",
"   #$%&&&%$#            ",
"  #*=&-&;>>*,@@@'       ",
"  '=)!&~{{]>$^/(_.@     ",
" .:&<<<~<~<~[@@@(_.@    ",
" +=%<;<~<~<}},  @|^.    ",
" @=1<~<~<<~22@   @3#.   ",
" +=;<~<~<~<22+   @/^@   ",
" .&1<<<~<~<4!.   @/^@   ",
"  $)11}~~444$@@@@@56@@  ",
"  #7>}})244*855555690a@ ",
"   #$[}22!$8bcd555690a@ ",
"     .@@e8fgchi8j5690a@ ",
"      @kljmgd@@nj6b90a@ ",
"      @kljmgcenom6pq0a@ ",
"      @klmmgfr@j56pq0a@ ",
"      @kljmgoe@s56pq0t@ ",
"      @klmg58e@cjb900t@ ",
"      @klmmgd88dj6pq00@ ",
"      @klmg5jjjj56p9p0@ ",
"      @jm6bpqqq9p9p90u@ ",
"       @@@@@@@@@@@@@@@  ",
"                        "};
