/* XPM */
static char * quicksearch_xpm[] = {
"12 12 46 1",
" 	c None",
".	c #46463E",
"+	c #090908",
"@	c #4A4A42",
"#	c #33332D",
"$	c #9D9D8D",
"%	c #CFCFB9",
"&	c #C4C4AF",
"*	c #8D8D7F",
"=	c #34342F",
"-	c #45453E",
";	c #9C9C8C",
">	c #E2E2D0",
",	c #EDEDE5",
"'	c #C0C0AC",
")	c #B2B29F",
"!	c #828274",
"~	c #4B4B43",
"{	c #080807",
"]	c #D5D5BF",
"^	c #FBFBFA",
"/	c #C3C3AE",
"(	c #B5B5A2",
"_	c #A6A695",
":	c #959586",
"<	c #080808",
"[	c #CACAB5",
"}	c #DDDDD0",
"|	c #B7B7A4",
"1	c #AAAA98",
"2	c #9B9B8B",
"3	c #8C8C7D",
"4	c #46463F",
"5	c #929283",
"6	c #BABAA7",
"7	c #ADAD9B",
"8	c #9F9F8E",
"9	c #909081",
"0	c #727266",
"a	c #4B4B44",
"b	c #33332E",
"c	c #878779",
"d	c #A0A090",
"e	c #737367",
"f	c #000000",
"g	c #404040",
"  .++@      ",
" #$%&*=     ",
"-;>,')!~    ",
"{]^/(_:+    ",
"<[}|123+    ",
"4567890a    ",
" bcd5eff    ",
"  @++gfff   ",
"       fff  ",
"        fff ",
"         fff",
"          ff"};
