/* XPM */
static char * replied_xpm[] = {
"12 12 7 1",
" 	c None",
".	c #000000",
"+	c #FFFFFF",
"@	c #990000",
"#	c #EFEFEF",
"$	c #CCCCCC",
"%	c #7F0000",
"            ",
"            ",
"  ......... ",
"  .+++++++. ",
"  .+@@@@#$. ",
"  .+@@@##$. ",
"  .+@@@@#$. ",
"  .+@#@@%$. ",
"  .+###%%$. ",
"  .+$$$$$$. ",
"  ......... ",
"            "};
