/* XPM */
static char * spam_btn_xpm[] = {
"24 24 46 1",
" 	c None",
".	c #000000",
"+	c #535353",
"@	c #FFFFFF",
"#	c #FEFEFE",
"$	c #FDFDFD",
"%	c #FCFCFC",
"&	c #FBFBFB",
"*	c #F9F9F9",
"=	c #F8F8F8",
"-	c #F7F7F7",
";	c #F6F6F6",
">	c #F5F5F5",
",	c #F4F4F4",
"'	c #E3E3E3",
")	c #EEEEEE",
"!	c #4F4F4F",
"~	c #F3F3F3",
"{	c #F2F2F2",
"]	c #F1F1F1",
"^	c #F0F0F0",
"/	c #EFEFEF",
"(	c #EDEDED",
"_	c #AEAEAE",
":	c #E4E4E4",
"<	c #434343",
"[	c #ACACAC",
"}	c #C8C8C8",
"|	c #A0A0A0",
"1	c #D4D4D4",
"2	c #ECECEC",
"3	c #959595",
"4	c #3E3E3E",
"5	c #4D4D4D",
"6	c #818181",
"7	c #C6C6C6",
"8	c #6A6A6A",
"9	c #868686",
"0	c #1E1E1E",
"a	c #636363",
"b	c #B9B9B9",
"c	c #333333",
"d	c #737373",
"e	c #FFD10D",
"f	c #7C7C7C",
"g	c #BCBCBC",
"                        ",
"                        ",
"                        ",
"                        ",
"                        ",
"   .................    ",
"  .+@@@@#$%&*=-;>,'+.   ",
"  .)!@>,~{{]^^/)('!_.   ",
"  .@:<$~{{]^/))('![}.   ",
"  .@>:!&]^^/)(('<|1}.   ",
"  .@&>:<=^/)(2'!31:}.   ",
"  .@>>>:4>)(2'567::}.   ",
"  .@&>>:8<~2259....0.   ",
"  .@>>:a@b!^5cc.....cc  ",
"  .@&:a@>:1!9c.......c  ",
"  .@:d@>>>>>...e...e... ",
"  .@f@::::::........... ",
"  .dgggggggg........... ",
"   .............eee.... ",
"            ...e...e... ",
"             c.......c  ",
"             cc.....cc  ",
"               .....    ",
"                        "};
