/* XPM */
static char * vcard_xpm[] = {
"16 16 80 1",
" 	c None",
".	c #838383",
"+	c #000000",
"@	c #7F7F7F",
"#	c #1D1D1D",
"$	c #FFFFFF",
"%	c #1C1C1C",
"&	c #232323",
"*	c #CFCFCF",
"=	c #C9CACA",
"-	c #BDBDBC",
";	c #C8C8C7",
">	c #E2E2E2",
",	c #F9F9F9",
"'	c #FEFEFE",
")	c #FAFAFA",
"!	c #F8F8F8",
"~	c #FBFBFB",
"{	c #F7F7F7",
"]	c #1F1F1F",
"^	c #BFBFBF",
"/	c #9C9190",
"(	c #0F0303",
"_	c #010101",
":	c #CECDCC",
"<	c #B3B3B3",
"[	c #E0E0E0",
"}	c #F4F4F4",
"|	c #C5C5C5",
"1	c #F6F6F6",
"2	c #F5F5F5",
"3	c #CECBC8",
"4	c #D0C59D",
"5	c #000002",
"6	c #C5C4C2",
"7	c #9A9A9A",
"8	c #ACACAC",
"9	c #B4B4B4",
"0	c #CBCBCB",
"a	c #CECECE",
"b	c #FCFCFC",
"c	c #C9C5C4",
"d	c #93A1A5",
"e	c #9EA193",
"f	c #C9C8C6",
"g	c #FDFDFD",
"h	c #276274",
"i	c #203D6A",
"j	c #1F416B",
"k	c #27276A",
"l	c #CCD2D0",
"m	c #939393",
"n	c #C3C3C3",
"o	c #B7B7B7",
"p	c #C0C0C0",
"q	c #D6D6D6",
"r	c #A7B5C3",
"s	c #A3A0C0",
"t	c #A19FBE",
"u	c #A5A7C3",
"v	c #C3D2D8",
"w	c #FDFCFC",
"x	c #CACACA",
"y	c #E3E3E3",
"z	c #C4C4C4",
"A	c #E1E1E1",
"B	c #D8D8D8",
"C	c #D7D7D6",
"D	c #B8B8B8",
"E	c #F2F2F2",
"F	c #F3F3F3",
"G	c #242424",
"H	c #E8E8E8",
"I	c #B9B9B9",
"J	c #DDDDDD",
"K	c #A9A9A9",
"L	c #D9D9D9",
"M	c #1B1B1B",
"N	c #747474",
"O	c #585858",
"                ",
"                ",
".++++++++++++++@",
"#$$$$$$$$$$$$$$%",
"&$*=-;>,')!~{{)]",
"&$^/(_:$<[}|12)]",
"&$^3456$78990ab]",
"&$cde+f)~ggb),!]",
"&$hijkl$mnopnq)]",
"&$rstuvw0xyozA,]",
"&$BC}Dq)2}{EF}1]",
"G$ApHI$~JBK*LL!]",
"M$''bg,!!!,{2}$M",
"N++++++++++++++O",
"                ",
"                "};
