/* XPM */
static char * zoom_fit_xpm[] = {
"14 14 49 1",
" 	c None",
".	c #46463E",
"+	c #090908",
"@	c #4A4A42",
"#	c #33332D",
"$	c #B6B6AB",
"%	c #E2E2D6",
"&	c #DDDDD0",
"*	c #ABABA0",
"=	c #34342F",
"-	c #45453E",
";	c #B6B6AA",
">	c #10101A",
",	c #0B0B0F",
"'	c #DBDCD0",
")	c #2B2B35",
"!	c #A3A398",
"~	c #4B4B43",
"{	c #080807",
"]	c #E6E6D9",
"^	c #030303",
"/	c #DEDED2",
"(	c #D6D6CC",
"_	c #CECEC4",
":	c #31313B",
"<	c #C0C0B8",
"[	c #080808",
"}	c #E0E0D4",
"|	c #ECECE6",
"1	c #D7D7CD",
"2	c #D0D0C6",
"3	c #C7C7BF",
"4	c #AEAEA4",
"5	c #262630",
"6	c #D2D2C8",
"7	c #CACAC0",
"8	c #C2C2BA",
"9	c #3D3D45",
"0	c #BCBCB4",
"a	c #2D2D37",
"b	c #97978D",
"c	c #4B4B44",
"d	c #33332E",
"e	c #A6A69C",
"f	c #C7C7BE",
"g	c #BFBFB7",
"h	c #98988E",
"i	c #000000",
"j	c #404040",
"  .+++@       ",
" #$%&**=      ",
"-;>,'))!~     ",
"{]^/(_:<+     ",
"[}|1233<+     ",
"+4567890+     ",
"-45a799bc     ",
" def<ghii     ",
"  @+++jiii    ",
"        iii   ",
"         iii  ",
"          iii ",
"           ii ",
"              "};
