/* XPM */
static char * zoom_in_xpm[] = {
"14 14 46 1",
" 	c None",
".	c #46463E",
"+	c #090908",
"@	c #4A4A42",
"#	c #33332D",
"$	c #B6B6AB",
"%	c #E2E2D6",
"&	c #DDDDD0",
"*	c #ABABA0",
"=	c #34342F",
"-	c #45453E",
";	c #B6B6AA",
">	c #EFEFE5",
",	c #F4F4F0",
"'	c #24232F",
")	c #D4D4CA",
"!	c #A3A398",
"~	c #4B4B43",
"{	c #080807",
"]	c #E6E6D9",
"^	c #FCFCFC",
"/	c #DEDED2",
"(	c #292933",
"_	c #CECEC4",
":	c #C0C0B8",
"<	c #080808",
"[	c #E0E0D4",
"}	c #131319",
"|	c #282832",
"1	c #2F2F39",
"2	c #383840",
"3	c #AEAEA4",
"4	c #D9D9CF",
"5	c #D2D2C8",
"6	c #35353F",
"7	c #C2C2BA",
"8	c #BCBCB4",
"9	c #97978D",
"0	c #4B4B44",
"a	c #33332E",
"b	c #A6A69C",
"c	c #C7C7BE",
"d	c #BFBFB7",
"e	c #98988E",
"f	c #000000",
"g	c #404040",
"  .+++@       ",
" #$%&**=      ",
"-;>,'))!~     ",
"{]^/(__:+     ",
"<[}|122:+     ",
"+3456778+     ",
"-34567790     ",
" abc:deff     ",
"  @+++gfff    ",
"        fff   ",
"         fff  ",
"          fff ",
"           ff ",
"              "};
